%TF.GenerationSoftware,KiCad,Pcbnew,7.0.10-7.0.10~ubuntu22.04.1*%
%TF.CreationDate,2024-08-03T23:28:11-07:00*%
%TF.ProjectId,cheating-calc,63686561-7469-46e6-972d-63616c632e6b,rev?*%
%TF.SameCoordinates,Original*%
%TF.FileFunction,Copper,L1,Top*%
%TF.FilePolarity,Positive*%
%FSLAX46Y46*%
G04 Gerber Fmt 4.6, Leading zero omitted, Abs format (unit mm)*
G04 Created by KiCad (PCBNEW 7.0.10-7.0.10~ubuntu22.04.1) date 2024-08-03 23:28:11*
%MOMM*%
%LPD*%
G01*
G04 APERTURE LIST*
G04 Aperture macros list*
%AMRoundRect*
0 Rectangle with rounded corners*
0 $1 Rounding radius*
0 $2 $3 $4 $5 $6 $7 $8 $9 X,Y pos of 4 corners*
0 Add a 4 corners polygon primitive as box body*
4,1,4,$2,$3,$4,$5,$6,$7,$8,$9,$2,$3,0*
0 Add four circle primitives for the rounded corners*
1,1,$1+$1,$2,$3*
1,1,$1+$1,$4,$5*
1,1,$1+$1,$6,$7*
1,1,$1+$1,$8,$9*
0 Add four rect primitives between the rounded corners*
20,1,$1+$1,$2,$3,$4,$5,0*
20,1,$1+$1,$4,$5,$6,$7,0*
20,1,$1+$1,$6,$7,$8,$9,0*
20,1,$1+$1,$8,$9,$2,$3,0*%
G04 Aperture macros list end*
%TA.AperFunction,SMDPad,CuDef*%
%ADD10RoundRect,1.000000X0.000000X0.375000X0.000000X-0.375000X0.000000X-0.375000X0.000000X0.375000X0*%
%TD*%
%TA.AperFunction,SMDPad,CuDef*%
%ADD11RoundRect,0.150000X0.587500X0.150000X-0.587500X0.150000X-0.587500X-0.150000X0.587500X-0.150000X0*%
%TD*%
%TA.AperFunction,ComponentPad*%
%ADD12O,1.700000X1.700000*%
%TD*%
%TA.AperFunction,ComponentPad*%
%ADD13R,1.700000X1.700000*%
%TD*%
%TA.AperFunction,ComponentPad*%
%ADD14O,1.600000X1.600000*%
%TD*%
%TA.AperFunction,ComponentPad*%
%ADD15C,1.600000*%
%TD*%
%TA.AperFunction,ViaPad*%
%ADD16C,0.800000*%
%TD*%
%TA.AperFunction,Conductor*%
%ADD17C,0.250000*%
%TD*%
G04 APERTURE END LIST*
D10*
%TO.P,U1,7,PB08_A6_D6_TX*%
%TO.N,unconnected-(U1-PB08_A6_D6_TX-Pad7)*%
X137160000Y-54701000D03*
%TO.P,U1,6,PA9_A5_D5_SCL*%
%TO.N,unconnected-(U1-PA9_A5_D5_SCL-Pad6)*%
X139700000Y-54701000D03*
%TO.P,U1,5,PA8_A4_D4_SDA*%
%TO.N,unconnected-(U1-PA8_A4_D4_SDA-Pad5)*%
X142240000Y-54701000D03*
%TO.P,U1,4,PA11_A3_D3*%
%TO.N,unconnected-(U1-PA11_A3_D3-Pad4)*%
X144780000Y-54701000D03*
%TO.P,U1,3,PA10_A2_D2*%
%TO.N,unconnected-(U1-PA10_A2_D2-Pad3)*%
X147320000Y-54701000D03*
%TO.P,U1,2,PA4_A1_D1*%
%TO.N,TIP_GPIO*%
X149860000Y-54701000D03*
%TO.P,U1,1,PA02_A0_D0*%
%TO.N,unconnected-(U1-PA02_A0_D0-Pad1)*%
X152400000Y-54701000D03*
%TO.P,U1,8,PB09_A7_D7_RX*%
%TO.N,unconnected-(U1-PB09_A7_D7_RX-Pad8)*%
X137160000Y-70866000D03*
%TO.P,U1,9,PA7_A8_D8_SCK*%
%TO.N,unconnected-(U1-PA7_A8_D8_SCK-Pad9)*%
X139700000Y-70866000D03*
%TO.P,U1,10,PA5_A9_D9_MISO*%
%TO.N,unconnected-(U1-PA5_A9_D9_MISO-Pad10)*%
X142240000Y-70866000D03*
%TO.P,U1,11,PA6_A10_D10_MOSI*%
%TO.N,RING_GPIO*%
X144780000Y-70866000D03*
%TO.P,U1,12,3V3*%
%TO.N,+3.3V*%
X147320000Y-70866000D03*
%TO.P,U1,13,GND*%
%TO.N,GND*%
X149860000Y-70866000D03*
%TO.P,U1,14,5V*%
%TO.N,+5V*%
X152400000Y-70866000D03*
%TD*%
D11*
%TO.P,Q1,1,G*%
%TO.N,+3.3V*%
X122906000Y-64069000D03*
%TO.P,Q1,2,S*%
%TO.N,RING_GPIO*%
X122906000Y-62169000D03*
%TO.P,Q1,3,D*%
%TO.N,RING*%
X121031000Y-63119000D03*
%TD*%
D12*
%TO.P,J1,4,Pin_4*%
%TO.N,+5V*%
X93472000Y-71628000D03*
%TO.P,J1,3,Pin_3*%
%TO.N,GND*%
X96012000Y-71628000D03*
%TO.P,J1,2,Pin_2*%
%TO.N,TIP*%
X98552000Y-71628000D03*
D13*
%TO.P,J1,1,Pin_1*%
%TO.N,RING*%
X101092000Y-71628000D03*
%TD*%
D14*
%TO.P,R4,2*%
%TO.N,TIP*%
X112395000Y-65151000D03*
D15*
%TO.P,R4,1*%
%TO.N,+5V*%
X112395000Y-54991000D03*
%TD*%
%TO.P,R2,1*%
%TO.N,+3.3V*%
X130876000Y-54864000D03*
D14*
%TO.P,R2,2*%
%TO.N,TIP_GPIO*%
X130876000Y-65024000D03*
%TD*%
D15*
%TO.P,R3,1*%
%TO.N,+5V*%
X115824000Y-54991000D03*
D14*
%TO.P,R3,2*%
%TO.N,RING*%
X115824000Y-65151000D03*
%TD*%
D11*
%TO.P,Q2,3,D*%
%TO.N,TIP*%
X121031000Y-58166000D03*
%TO.P,Q2,2,S*%
%TO.N,TIP_GPIO*%
X122906000Y-57216000D03*
%TO.P,Q2,1,G*%
%TO.N,+3.3V*%
X122906000Y-59116000D03*
%TD*%
D14*
%TO.P,R1,2*%
%TO.N,RING_GPIO*%
X127508000Y-65024000D03*
D15*
%TO.P,R1,1*%
%TO.N,+3.3V*%
X127508000Y-54864000D03*
%TD*%
D16*
%TO.N,+5V*%
X152019000Y-68199000D03*
%TO.N,+3.3V*%
X147320000Y-68199000D03*
X125095000Y-59055000D03*
X125095000Y-64135000D03*
%TD*%
D17*
%TO.N,+5V*%
X152400000Y-68580000D02*
X152019000Y-68199000D01*
X152400000Y-70866000D02*
X152400000Y-68580000D01*
%TO.N,+3.3V*%
X147320000Y-70866000D02*
X147320000Y-68199000D01*
%TO.N,TIP_GPIO*%
X149860000Y-54701000D02*
X149860000Y-53340000D01*
%TO.N,+3.3V*%
X125034000Y-59116000D02*
X125095000Y-59055000D01*
X122906000Y-59116000D02*
X125034000Y-59116000D01*
X125029000Y-64069000D02*
X125095000Y-64135000D01*
X122906000Y-64069000D02*
X125029000Y-64069000D01*
%TO.N,TIP_GPIO*%
X130876000Y-65024000D02*
X130876000Y-61876000D01*
X130876000Y-61876000D02*
X126216000Y-57216000D01*
X126216000Y-57216000D02*
X122906000Y-57216000D01*
%TO.N,RING_GPIO*%
X127508000Y-65024000D02*
X127508000Y-62508000D01*
X127508000Y-62508000D02*
X127000000Y-62000000D01*
X127000000Y-62000000D02*
X123075000Y-62000000D01*
X123075000Y-62000000D02*
X122906000Y-62169000D01*
%TO.N,TIP_GPIO*%
X138811000Y-59436000D02*
X133350000Y-59436000D01*
X147955000Y-56606000D02*
X147955000Y-59436000D01*
X149860000Y-54701000D02*
X147955000Y-56606000D01*
X147955000Y-59436000D02*
X146939000Y-60452000D01*
X139827000Y-60452000D02*
X138811000Y-59436000D01*
X146939000Y-60452000D02*
X139827000Y-60452000D01*
X130876000Y-61910000D02*
X130876000Y-65024000D01*
X133350000Y-59436000D02*
X130876000Y-61910000D01*
%TO.N,TIP*%
X112395000Y-63373000D02*
X111887000Y-62865000D01*
X111887000Y-62865000D02*
X104648000Y-62865000D01*
X104648000Y-62865000D02*
X98552000Y-68961000D01*
X98552000Y-68961000D02*
X98552000Y-71628000D01*
X121031000Y-58166000D02*
X117602000Y-58166000D01*
X117602000Y-58166000D02*
X112395000Y-63373000D01*
X112395000Y-63373000D02*
X112395000Y-65151000D01*
%TO.N,RING*%
X115824000Y-66294000D02*
X115189000Y-66929000D01*
X115824000Y-65151000D02*
X115824000Y-66294000D01*
X115189000Y-66929000D02*
X105791000Y-66929000D01*
X105791000Y-66929000D02*
X101092000Y-71628000D01*
X121031000Y-63119000D02*
X117856000Y-63119000D01*
X117856000Y-63119000D02*
X115824000Y-65151000D01*
%TO.N,RING_GPIO*%
X127508000Y-65024000D02*
X128905000Y-66421000D01*
X128905000Y-66421000D02*
X140335000Y-66421000D01*
X140335000Y-66421000D02*
X144780000Y-70866000D01*
%TD*%
%TA.AperFunction,Conductor*%
%TO.N,GND*%
G36*
X157086802Y-52290185D02*
G01*
X157132557Y-52342989D01*
X157143763Y-52394500D01*
X157143763Y-73745704D01*
X157124078Y-73812743D01*
X157071274Y-73858498D01*
X157019763Y-73869704D01*
X132668733Y-73869704D01*
X132601694Y-73850019D01*
X132555939Y-73797215D01*
X132544733Y-73745704D01*
X132544733Y-68024288D01*
X132540740Y-68015997D01*
X132531571Y-67989794D01*
X132529523Y-67980820D01*
X132523779Y-67973617D01*
X132509012Y-67950116D01*
X132505021Y-67941827D01*
X132497826Y-67936089D01*
X132478192Y-67916455D01*
X132472456Y-67909262D01*
X132464164Y-67905269D01*
X132440661Y-67890500D01*
X132433467Y-67884763D01*
X132433466Y-67884762D01*
X132433464Y-67884761D01*
X132424486Y-67882711D01*
X132398290Y-67873545D01*
X132389996Y-67869551D01*
X132366823Y-67869551D01*
X110389784Y-67869551D01*
X110298258Y-67869551D01*
X110298256Y-67869551D01*
X110298254Y-67869552D01*
X110289960Y-67873546D01*
X110263766Y-67882711D01*
X110254790Y-67884760D01*
X110247587Y-67890504D01*
X110224091Y-67905268D01*
X110215797Y-67909262D01*
X110215796Y-67909264D01*
X110210057Y-67916460D01*
X110190430Y-67936087D01*
X110183234Y-67941826D01*
X110183232Y-67941827D01*
X110179238Y-67950121D01*
X110164474Y-67973617D01*
X110158730Y-67980820D01*
X110156681Y-67989796D01*
X110147516Y-68015990D01*
X110143522Y-68024284D01*
X110143521Y-68024289D01*
X110143521Y-73745704D01*
X110123836Y-73812743D01*
X110071032Y-73858498D01*
X110019521Y-73869704D01*
X85668500Y-73869704D01*
X85601461Y-73850019D01*
X85555706Y-73797215D01*
X85544500Y-73745704D01*
X85544500Y-71628000D01*
X92116341Y-71628000D01*
X92136936Y-71863403D01*
X92136938Y-71863413D01*
X92198094Y-72091655D01*
X92198096Y-72091659D01*
X92198097Y-72091663D01*
X92277801Y-72262588D01*
X92297965Y-72305830D01*
X92297967Y-72305834D01*
X92406281Y-72460521D01*
X92433505Y-72499401D01*
X92600599Y-72666495D01*
X92678723Y-72721198D01*
X92794165Y-72802032D01*
X92794167Y-72802033D01*
X92794170Y-72802035D01*
X93008337Y-72901903D01*
X93236592Y-72963063D01*
X93413034Y-72978500D01*
X93471999Y-72983659D01*
X93472000Y-72983659D01*
X93472001Y-72983659D01*
X93530966Y-72978500D01*
X93707408Y-72963063D01*
X93935663Y-72901903D01*
X94149830Y-72802035D01*
X94343401Y-72666495D01*
X94510495Y-72499401D01*
X94640730Y-72313405D01*
X94695307Y-72269781D01*
X94764805Y-72262587D01*
X94827160Y-72294110D01*
X94843879Y-72313405D01*
X94973890Y-72499078D01*
X95140917Y-72666105D01*
X95334421Y-72801600D01*
X95548507Y-72901429D01*
X95548516Y-72901433D01*
X95762000Y-72958634D01*
X95762000Y-72063501D01*
X95869685Y-72112680D01*
X95976237Y-72128000D01*
X96047763Y-72128000D01*
X96154315Y-72112680D01*
X96262000Y-72063501D01*
X96262000Y-72958633D01*
X96475483Y-72901433D01*
X96475492Y-72901429D01*
X96689578Y-72801600D01*
X96883082Y-72666105D01*
X97050105Y-72499082D01*
X97180119Y-72313405D01*
X97234696Y-72269781D01*
X97304195Y-72262588D01*
X97366549Y-72294110D01*
X97383269Y-72313405D01*
X97513505Y-72499401D01*
X97680599Y-72666495D01*
X97758723Y-72721198D01*
X97874165Y-72802032D01*
X97874167Y-72802033D01*
X97874170Y-72802035D01*
X98088337Y-72901903D01*
X98316592Y-72963063D01*
X98493034Y-72978500D01*
X98551999Y-72983659D01*
X98552000Y-72983659D01*
X98552001Y-72983659D01*
X98610966Y-72978500D01*
X98787408Y-72963063D01*
X99015663Y-72901903D01*
X99229830Y-72802035D01*
X99423401Y-72666495D01*
X99545329Y-72544566D01*
X99606648Y-72511084D01*
X99676340Y-72516068D01*
X99732274Y-72557939D01*
X99749189Y-72588917D01*
X99798202Y-72720328D01*
X99798206Y-72720335D01*
X99884452Y-72835544D01*
X99884455Y-72835547D01*
X99999664Y-72921793D01*
X99999671Y-72921797D01*
X100134517Y-72972091D01*
X100134516Y-72972091D01*
X100141444Y-72972835D01*
X100194127Y-72978500D01*
X101989872Y-72978499D01*
X102049483Y-72972091D01*
X102184331Y-72921796D01*
X102299546Y-72835546D01*
X102385796Y-72720331D01*
X102436091Y-72585483D01*
X102442500Y-72525873D01*
X102442499Y-71213450D01*
X102462184Y-71146412D01*
X102478813Y-71125775D01*
X106013771Y-67590819D01*
X106075094Y-67557334D01*
X106101452Y-67554500D01*
X115106257Y-67554500D01*
X115121877Y-67556224D01*
X115121904Y-67555939D01*
X115129660Y-67556671D01*
X115129667Y-67556673D01*
X115196873Y-67554561D01*
X115200768Y-67554500D01*
X115228346Y-67554500D01*
X115228350Y-67554500D01*
X115232324Y-67553997D01*
X115243963Y-67553080D01*
X115287627Y-67551709D01*
X115306869Y-67546117D01*
X115325912Y-67542174D01*
X115345792Y-67539664D01*
X115386401Y-67523585D01*
X115397444Y-67519803D01*
X115439390Y-67507618D01*
X115456629Y-67497422D01*
X115474103Y-67488862D01*
X115492727Y-67481488D01*
X115492727Y-67481487D01*
X115492732Y-67481486D01*
X115528083Y-67455800D01*
X115537814Y-67449408D01*
X115575420Y-67427170D01*
X115589589Y-67412999D01*
X115604379Y-67400368D01*
X115620587Y-67388594D01*
X115648438Y-67354926D01*
X115656279Y-67346309D01*
X116207786Y-66794802D01*
X116220048Y-66784980D01*
X116219865Y-66784759D01*
X116225868Y-66779791D01*
X116225877Y-66779786D01*
X116271934Y-66730739D01*
X116274582Y-66728006D01*
X116294120Y-66708470D01*
X116296570Y-66705310D01*
X116304154Y-66696429D01*
X116334062Y-66664582D01*
X116343714Y-66647023D01*
X116354389Y-66630772D01*
X116366674Y-66614936D01*
X116384030Y-66574825D01*
X116389161Y-66564354D01*
X116410194Y-66526098D01*
X116410194Y-66526097D01*
X116410197Y-66526092D01*
X116415180Y-66506680D01*
X116421477Y-66488291D01*
X116429438Y-66469895D01*
X116436270Y-66426748D01*
X116438639Y-66415316D01*
X116448602Y-66376517D01*
X116449500Y-66373019D01*
X116449500Y-66365187D01*
X116469185Y-66298148D01*
X116502374Y-66263614D01*
X116663139Y-66151047D01*
X116824047Y-65990139D01*
X116954568Y-65803734D01*
X117050739Y-65597496D01*
X117109635Y-65377692D01*
X117129468Y-65151000D01*
X117109635Y-64924308D01*
X117091318Y-64855948D01*
X117092981Y-64786103D01*
X117123410Y-64736179D01*
X118078772Y-63780819D01*
X118140095Y-63747334D01*
X118166453Y-63744500D01*
X119947691Y-63744500D01*
X120014730Y-63764185D01*
X120035372Y-63780819D01*
X120041629Y-63787076D01*
X120041633Y-63787079D01*
X120041635Y-63787081D01*
X120183102Y-63870744D01*
X120204119Y-63876850D01*
X120340926Y-63916597D01*
X120340929Y-63916597D01*
X120340931Y-63916598D01*
X120377806Y-63919500D01*
X121544000Y-63919500D01*
X121611039Y-63939185D01*
X121656794Y-63991989D01*
X121668000Y-64043500D01*
X121668000Y-64284701D01*
X121670901Y-64321567D01*
X121670902Y-64321573D01*
X121716754Y-64479393D01*
X121716755Y-64479396D01*
X121716756Y-64479398D01*
X121727915Y-64498267D01*
X121800417Y-64620862D01*
X121800423Y-64620870D01*
X121916629Y-64737076D01*
X121916633Y-64737079D01*
X121916635Y-64737081D01*
X122058102Y-64820744D01*
X122099724Y-64832836D01*
X122215926Y-64866597D01*
X122215929Y-64866597D01*
X122215931Y-64866598D01*
X122252806Y-64869500D01*
X122252814Y-64869500D01*
X123559186Y-64869500D01*
X123559194Y-64869500D01*
X123596069Y-64866598D01*
X123596071Y-64866597D01*
X123596073Y-64866597D01*
X123637691Y-64854505D01*
X123753898Y-64820744D01*
X123895365Y-64737081D01*
X123896918Y-64735528D01*
X123901628Y-64730819D01*
X123962951Y-64697334D01*
X123989309Y-64694500D01*
X124331825Y-64694500D01*
X124398864Y-64714185D01*
X124423975Y-64735528D01*
X124489123Y-64807883D01*
X124489130Y-64807889D01*
X124642265Y-64919148D01*
X124642270Y-64919151D01*
X124815192Y-64996142D01*
X124815197Y-64996144D01*
X125000354Y-65035500D01*
X125000355Y-65035500D01*
X125189644Y-65035500D01*
X125189646Y-65035500D01*
X125374803Y-64996144D01*
X125547730Y-64919151D01*
X125700871Y-64807888D01*
X125827533Y-64667216D01*
X125922179Y-64503284D01*
X125980674Y-64323256D01*
X126000460Y-64135000D01*
X125980674Y-63946744D01*
X125922179Y-63766716D01*
X125827533Y-63602784D01*
X125700871Y-63462112D01*
X125674976Y-63443298D01*
X125547734Y-63350851D01*
X125547729Y-63350848D01*
X125374807Y-63273857D01*
X125374802Y-63273855D01*
X125229001Y-63242865D01*
X125189646Y-63234500D01*
X125000354Y-63234500D01*
X124967897Y-63241398D01*
X124815197Y-63273855D01*
X124815192Y-63273857D01*
X124642270Y-63350848D01*
X124642265Y-63350851D01*
X124547341Y-63419818D01*
X124481535Y-63443298D01*
X124474456Y-63443500D01*
X123989309Y-63443500D01*
X123922270Y-63423815D01*
X123901628Y-63407181D01*
X123895370Y-63400923D01*
X123895362Y-63400917D01*
X123753896Y-63317255D01*
X123753893Y-63317254D01*
X123596073Y-63271402D01*
X123596067Y-63271401D01*
X123559201Y-63268500D01*
X123559194Y-63268500D01*
X122393000Y-63268500D01*
X122325961Y-63248815D01*
X122280206Y-63196011D01*
X122269000Y-63144500D01*
X122269000Y-63093500D01*
X122288685Y-63026461D01*
X122341489Y-62980706D01*
X122393000Y-62969500D01*
X123559186Y-62969500D01*
X123559194Y-62969500D01*
X123596069Y-62966598D01*
X123596071Y-62966597D01*
X123596073Y-62966597D01*
X123637691Y-62954505D01*
X123753898Y-62920744D01*
X123895365Y-62837081D01*
X124011581Y-62720865D01*
X124031976Y-62686379D01*
X124083045Y-62638696D01*
X124138708Y-62625500D01*
X126689548Y-62625500D01*
X126756587Y-62645185D01*
X126777229Y-62661819D01*
X126846181Y-62730771D01*
X126879666Y-62792094D01*
X126882500Y-62818452D01*
X126882500Y-63809811D01*
X126862815Y-63876850D01*
X126829623Y-63911386D01*
X126668859Y-64023953D01*
X126507954Y-64184858D01*
X126377432Y-64371265D01*
X126377431Y-64371267D01*
X126281261Y-64577502D01*
X126281258Y-64577511D01*
X126222366Y-64797302D01*
X126222364Y-64797313D01*
X126202532Y-65023998D01*
X126202532Y-65024001D01*
X126222364Y-65250686D01*
X126222366Y-65250697D01*
X126281258Y-65470488D01*
X126281261Y-65470497D01*
X126377431Y-65676732D01*
X126377432Y-65676734D01*
X126507954Y-65863141D01*
X126668858Y-66024045D01*
X126670413Y-66025134D01*
X126855266Y-66154568D01*
X127061504Y-66250739D01*
X127281308Y-66309635D01*
X127438791Y-66323413D01*
X127507998Y-66329468D01*
X127508000Y-66329468D01*
X127508002Y-66329468D01*
X127564673Y-66324509D01*
X127734692Y-66309635D01*
X127803048Y-66291319D01*
X127872897Y-66292982D01*
X127922822Y-66323413D01*
X128404197Y-66804788D01*
X128414022Y-66817051D01*
X128414243Y-66816869D01*
X128419211Y-66822874D01*
X128468222Y-66868899D01*
X128471021Y-66871612D01*
X128490522Y-66891114D01*
X128490526Y-66891117D01*
X128490529Y-66891120D01*
X128493702Y-66893581D01*
X128502574Y-66901159D01*
X128534418Y-66931062D01*
X128551976Y-66940714D01*
X128568235Y-66951395D01*
X128584064Y-66963673D01*
X128624155Y-66981021D01*
X128634626Y-66986151D01*
X128657180Y-66998550D01*
X128672902Y-67007194D01*
X128672904Y-67007195D01*
X128672908Y-67007197D01*
X128692316Y-67012180D01*
X128710719Y-67018481D01*
X128729101Y-67026436D01*
X128729102Y-67026436D01*
X128729104Y-67026437D01*
X128772250Y-67033270D01*
X128783672Y-67035636D01*
X128825981Y-67046500D01*
X128846016Y-67046500D01*
X128865414Y-67048026D01*
X128885194Y-67051159D01*
X128885195Y-67051160D01*
X128885195Y-67051159D01*
X128885196Y-67051160D01*
X128928675Y-67047050D01*
X128940344Y-67046500D01*
X140024548Y-67046500D01*
X140091587Y-67066185D01*
X140112229Y-67082819D01*
X141869063Y-68839654D01*
X141902548Y-68900977D01*
X141897564Y-68970669D01*
X141855692Y-69026602D01*
X141814870Y-69045063D01*
X141815295Y-69046489D01*
X141810377Y-69047952D01*
X141578730Y-69138342D01*
X141365097Y-69265639D01*
X141175350Y-69426348D01*
X141175348Y-69426350D01*
X141064622Y-69557084D01*
X141006273Y-69595519D01*
X140936408Y-69596306D01*
X140877208Y-69559197D01*
X140875378Y-69557084D01*
X140764651Y-69426350D01*
X140764649Y-69426348D01*
X140574902Y-69265639D01*
X140491508Y-69215947D01*
X140361273Y-69138344D01*
X140361271Y-69138343D01*
X140361269Y-69138342D01*
X140129625Y-69047953D01*
X140129615Y-69047950D01*
X139886238Y-68996919D01*
X139886235Y-68996918D01*
X139782850Y-68990500D01*
X139782842Y-68990500D01*
X139617158Y-68990500D01*
X139617149Y-68990500D01*
X139513764Y-68996918D01*
X139513761Y-68996919D01*
X139270384Y-69047950D01*
X139270374Y-69047953D01*
X139038730Y-69138342D01*
X138825097Y-69265639D01*
X138635350Y-69426348D01*
X138635348Y-69426350D01*
X138524622Y-69557084D01*
X138466273Y-69595519D01*
X138396408Y-69596306D01*
X138337208Y-69559197D01*
X138335378Y-69557084D01*
X138224651Y-69426350D01*
X138224649Y-69426348D01*
X138034902Y-69265639D01*
X137951508Y-69215947D01*
X137821273Y-69138344D01*
X137821271Y-69138343D01*
X137821269Y-69138342D01*
X137589625Y-69047953D01*
X137589615Y-69047950D01*
X137346238Y-68996919D01*
X137346235Y-68996918D01*
X137242850Y-68990500D01*
X137242842Y-68990500D01*
X137077158Y-68990500D01*
X137077149Y-68990500D01*
X136973764Y-68996918D01*
X136973761Y-68996919D01*
X136730384Y-69047950D01*
X136730374Y-69047953D01*
X136498730Y-69138342D01*
X136285097Y-69265639D01*
X136095350Y-69426348D01*
X136095348Y-69426350D01*
X135934639Y-69616097D01*
X135807342Y-69829730D01*
X135716953Y-70061374D01*
X135716950Y-70061384D01*
X135665919Y-70304761D01*
X135665918Y-70304764D01*
X135659500Y-70408149D01*
X135659500Y-71323850D01*
X135665918Y-71427235D01*
X135665919Y-71427238D01*
X135716950Y-71670615D01*
X135716953Y-71670625D01*
X135807342Y-71902269D01*
X135807344Y-71902273D01*
X135890000Y-72040988D01*
X135934639Y-72115902D01*
X136095348Y-72305649D01*
X136095350Y-72305651D01*
X136285097Y-72466360D01*
X136285103Y-72466363D01*
X136285106Y-72466366D01*
X136498727Y-72593656D01*
X136498730Y-72593657D01*
X136730374Y-72684046D01*
X136730381Y-72684048D01*
X136730386Y-72684050D01*
X136973763Y-72735081D01*
X137077158Y-72741500D01*
X137077169Y-72741500D01*
X137242831Y-72741500D01*
X137242842Y-72741500D01*
X137346237Y-72735081D01*
X137589614Y-72684050D01*
X137589621Y-72684046D01*
X137589625Y-72684046D01*
X137668980Y-72653080D01*
X137821273Y-72593656D01*
X138034894Y-72466366D01*
X138034898Y-72466361D01*
X138034902Y-72466360D01*
X138224649Y-72305651D01*
X138224650Y-72305650D01*
X138335378Y-72174915D01*
X138393726Y-72136480D01*
X138463591Y-72135693D01*
X138522792Y-72172802D01*
X138524622Y-72174915D01*
X138635349Y-72305650D01*
X138635350Y-72305651D01*
X138825097Y-72466360D01*
X138825103Y-72466363D01*
X138825106Y-72466366D01*
X139038727Y-72593656D01*
X139038730Y-72593657D01*
X139270374Y-72684046D01*
X139270381Y-72684048D01*
X139270386Y-72684050D01*
X139513763Y-72735081D01*
X139617158Y-72741500D01*
X139617169Y-72741500D01*
X139782831Y-72741500D01*
X139782842Y-72741500D01*
X139886237Y-72735081D01*
X140129614Y-72684050D01*
X140129621Y-72684046D01*
X140129625Y-72684046D01*
X140208980Y-72653080D01*
X140361273Y-72593656D01*
X140574894Y-72466366D01*
X140574898Y-72466361D01*
X140574902Y-72466360D01*
X140764649Y-72305651D01*
X140764650Y-72305650D01*
X140875378Y-72174915D01*
X140933726Y-72136480D01*
X141003591Y-72135693D01*
X141062792Y-72172802D01*
X141064622Y-72174915D01*
X141175349Y-72305650D01*
X141175350Y-72305651D01*
X141365097Y-72466360D01*
X141365103Y-72466363D01*
X141365106Y-72466366D01*
X141578727Y-72593656D01*
X141578730Y-72593657D01*
X141810374Y-72684046D01*
X141810381Y-72684048D01*
X141810386Y-72684050D01*
X142053763Y-72735081D01*
X142157158Y-72741500D01*
X142157169Y-72741500D01*
X142322831Y-72741500D01*
X142322842Y-72741500D01*
X142426237Y-72735081D01*
X142669614Y-72684050D01*
X142669621Y-72684046D01*
X142669625Y-72684046D01*
X142748980Y-72653080D01*
X142901273Y-72593656D01*
X143114894Y-72466366D01*
X143114898Y-72466361D01*
X143114902Y-72466360D01*
X143304649Y-72305651D01*
X143304650Y-72305650D01*
X143415378Y-72174915D01*
X143473726Y-72136480D01*
X143543591Y-72135693D01*
X143602792Y-72172802D01*
X143604622Y-72174915D01*
X143715349Y-72305650D01*
X143715350Y-72305651D01*
X143905097Y-72466360D01*
X143905103Y-72466363D01*
X143905106Y-72466366D01*
X144118727Y-72593656D01*
X144118730Y-72593657D01*
X144350374Y-72684046D01*
X144350381Y-72684048D01*
X144350386Y-72684050D01*
X144593763Y-72735081D01*
X144697158Y-72741500D01*
X144697169Y-72741500D01*
X144862831Y-72741500D01*
X144862842Y-72741500D01*
X144966237Y-72735081D01*
X145209614Y-72684050D01*
X145209621Y-72684046D01*
X145209625Y-72684046D01*
X145288980Y-72653080D01*
X145441273Y-72593656D01*
X145654894Y-72466366D01*
X145654898Y-72466361D01*
X145654902Y-72466360D01*
X145844649Y-72305651D01*
X145844650Y-72305650D01*
X145955378Y-72174915D01*
X146013726Y-72136480D01*
X146083591Y-72135693D01*
X146142792Y-72172802D01*
X146144622Y-72174915D01*
X146255349Y-72305650D01*
X146255350Y-72305651D01*
X146445097Y-72466360D01*
X146445103Y-72466363D01*
X146445106Y-72466366D01*
X146658727Y-72593656D01*
X146658730Y-72593657D01*
X146890374Y-72684046D01*
X146890381Y-72684048D01*
X146890386Y-72684050D01*
X147133763Y-72735081D01*
X147237158Y-72741500D01*
X147237169Y-72741500D01*
X147402831Y-72741500D01*
X147402842Y-72741500D01*
X147506237Y-72735081D01*
X147749614Y-72684050D01*
X147749621Y-72684046D01*
X147749625Y-72684046D01*
X147828980Y-72653080D01*
X147981273Y-72593656D01*
X148194894Y-72466366D01*
X148194898Y-72466361D01*
X148194902Y-72466360D01*
X148321398Y-72359222D01*
X148384650Y-72305650D01*
X148495706Y-72174526D01*
X148554053Y-72136093D01*
X148623918Y-72135306D01*
X148683118Y-72172415D01*
X148684949Y-72174527D01*
X148795707Y-72305298D01*
X148985391Y-72465953D01*
X149198950Y-72593206D01*
X149430517Y-72683564D01*
X149430527Y-72683567D01*
X149610000Y-72721198D01*
X149610000Y-69010800D01*
X149609999Y-69010800D01*
X149430527Y-69048432D01*
X149430519Y-69048434D01*
X149198950Y-69138793D01*
X148985391Y-69266046D01*
X148795707Y-69426702D01*
X148684949Y-69557472D01*
X148626600Y-69595906D01*
X148556735Y-69596693D01*
X148497535Y-69559583D01*
X148495705Y-69557471D01*
X148384650Y-69426349D01*
X148384649Y-69426348D01*
X148194902Y-69265639D01*
X148194894Y-69265634D01*
X148006025Y-69153092D01*
X147958512Y-69101867D01*
X147945500Y-69046571D01*
X147945500Y-68897687D01*
X147965185Y-68830648D01*
X147977350Y-68814715D01*
X147995891Y-68794122D01*
X148052533Y-68731216D01*
X148147179Y-68567284D01*
X148205674Y-68387256D01*
X148225460Y-68199000D01*
X148205674Y-68010744D01*
X148147179Y-67830716D01*
X148052533Y-67666784D01*
X147925871Y-67526112D01*
X147925870Y-67526111D01*
X147772734Y-67414851D01*
X147772729Y-67414848D01*
X147599807Y-67337857D01*
X147599802Y-67337855D01*
X147454001Y-67306865D01*
X147414646Y-67298500D01*
X147225354Y-67298500D01*
X147192897Y-67305398D01*
X147040197Y-67337855D01*
X147040192Y-67337857D01*
X146867270Y-67414848D01*
X146867265Y-67414851D01*
X146714129Y-67526111D01*
X146587466Y-67666785D01*
X146492821Y-67830715D01*
X146492818Y-67830722D01*
X146434327Y-68010740D01*
X146434326Y-68010744D01*
X146414540Y-68199000D01*
X146434326Y-68387256D01*
X146434327Y-68387259D01*
X146492818Y-68567277D01*
X146492821Y-68567284D01*
X146587467Y-68731216D01*
X146602856Y-68748307D01*
X146662650Y-68814715D01*
X146692880Y-68877706D01*
X146694500Y-68897687D01*
X146694500Y-69046571D01*
X146674815Y-69113610D01*
X146633975Y-69153092D01*
X146544814Y-69206221D01*
X146445097Y-69265639D01*
X146255350Y-69426348D01*
X146255348Y-69426350D01*
X146144622Y-69557084D01*
X146086273Y-69595519D01*
X146016408Y-69596306D01*
X145957208Y-69559197D01*
X145955378Y-69557084D01*
X145844651Y-69426350D01*
X145844649Y-69426348D01*
X145654902Y-69265639D01*
X145571508Y-69215947D01*
X145441273Y-69138344D01*
X145441271Y-69138343D01*
X145441269Y-69138342D01*
X145209625Y-69047953D01*
X145209615Y-69047950D01*
X144966238Y-68996919D01*
X144966235Y-68996918D01*
X144862850Y-68990500D01*
X144862842Y-68990500D01*
X144697158Y-68990500D01*
X144697149Y-68990500D01*
X144593764Y-68996918D01*
X144593761Y-68996919D01*
X144350384Y-69047950D01*
X144350374Y-69047953D01*
X144118735Y-69138340D01*
X144118720Y-69138347D01*
X144087717Y-69156820D01*
X144020050Y-69174224D01*
X143953715Y-69152281D01*
X143936567Y-69137976D01*
X140835803Y-66037212D01*
X140825980Y-66024950D01*
X140825759Y-66025134D01*
X140820786Y-66019122D01*
X140771776Y-65973099D01*
X140768977Y-65970386D01*
X140749477Y-65950885D01*
X140749471Y-65950880D01*
X140746286Y-65948409D01*
X140737434Y-65940848D01*
X140705582Y-65910938D01*
X140705580Y-65910936D01*
X140705577Y-65910935D01*
X140688029Y-65901288D01*
X140671763Y-65890604D01*
X140655932Y-65878324D01*
X140615849Y-65860978D01*
X140605363Y-65855841D01*
X140567094Y-65834803D01*
X140567092Y-65834802D01*
X140547693Y-65829822D01*
X140529281Y-65823518D01*
X140510898Y-65815562D01*
X140510892Y-65815560D01*
X140467760Y-65808729D01*
X140456322Y-65806361D01*
X140414020Y-65795500D01*
X140414019Y-65795500D01*
X140393984Y-65795500D01*
X140374586Y-65793973D01*
X140367162Y-65792797D01*
X140354805Y-65790840D01*
X140354804Y-65790840D01*
X140311325Y-65794950D01*
X140299656Y-65795500D01*
X137579000Y-65795500D01*
X137511961Y-65775815D01*
X137466206Y-65723011D01*
X137455000Y-65671500D01*
X137455000Y-63645000D01*
X142535000Y-63645000D01*
X142535000Y-66693000D01*
X145583000Y-66693000D01*
X145583000Y-66185000D01*
X148631000Y-66185000D01*
X148631000Y-67963000D01*
X151000629Y-67963000D01*
X151067668Y-67982685D01*
X151113423Y-68035489D01*
X151123949Y-68099958D01*
X151113540Y-68199000D01*
X151133326Y-68387256D01*
X151133327Y-68387259D01*
X151191818Y-68567277D01*
X151191821Y-68567284D01*
X151286467Y-68731216D01*
X151361650Y-68814715D01*
X151413129Y-68871888D01*
X151566265Y-68983148D01*
X151566266Y-68983148D01*
X151566270Y-68983151D01*
X151595455Y-68996145D01*
X151648692Y-69041395D01*
X151669013Y-69108244D01*
X151649968Y-69175468D01*
X151608494Y-69215945D01*
X151554198Y-69248298D01*
X151525097Y-69265639D01*
X151335352Y-69426346D01*
X151224294Y-69557472D01*
X151165945Y-69595906D01*
X151096080Y-69596693D01*
X151036880Y-69559584D01*
X151035050Y-69557471D01*
X150924296Y-69426705D01*
X150924294Y-69426703D01*
X150734608Y-69266046D01*
X150521049Y-69138793D01*
X150289480Y-69048434D01*
X150289472Y-69048432D01*
X150110000Y-69010800D01*
X150110000Y-72721198D01*
X150289472Y-72683567D01*
X150289482Y-72683564D01*
X150521049Y-72593206D01*
X150734608Y-72465953D01*
X150924291Y-72305298D01*
X151035048Y-72174528D01*
X151093397Y-72136093D01*
X151163262Y-72135305D01*
X151222462Y-72172415D01*
X151224293Y-72174527D01*
X151335352Y-72305653D01*
X151525097Y-72466360D01*
X151525103Y-72466363D01*
X151525106Y-72466366D01*
X151738727Y-72593656D01*
X151738730Y-72593657D01*
X151970374Y-72684046D01*
X151970381Y-72684048D01*
X151970386Y-72684050D01*
X152213763Y-72735081D01*
X152317158Y-72741500D01*
X152317169Y-72741500D01*
X152482831Y-72741500D01*
X152482842Y-72741500D01*
X152586237Y-72735081D01*
X152829614Y-72684050D01*
X152829621Y-72684046D01*
X152829625Y-72684046D01*
X152908980Y-72653080D01*
X153061273Y-72593656D01*
X153274894Y-72466366D01*
X153274898Y-72466361D01*
X153274902Y-72466360D01*
X153464649Y-72305651D01*
X153464651Y-72305649D01*
X153625360Y-72115902D01*
X153625361Y-72115898D01*
X153625366Y-72115894D01*
X153752656Y-71902273D01*
X153843050Y-71670614D01*
X153894081Y-71427237D01*
X153900500Y-71323842D01*
X153900500Y-70408158D01*
X153894081Y-70304763D01*
X153843050Y-70061386D01*
X153843048Y-70061381D01*
X153843046Y-70061374D01*
X153752657Y-69829730D01*
X153752656Y-69829727D01*
X153625366Y-69616106D01*
X153625363Y-69616103D01*
X153625360Y-69616097D01*
X153464651Y-69426350D01*
X153464649Y-69426348D01*
X153274902Y-69265639D01*
X153274894Y-69265634D01*
X153086025Y-69153092D01*
X153038512Y-69101867D01*
X153025500Y-69046571D01*
X153025500Y-68662737D01*
X153027224Y-68647123D01*
X153026938Y-68647096D01*
X153027672Y-68639333D01*
X153025561Y-68572143D01*
X153025500Y-68568249D01*
X153025500Y-68540651D01*
X153025500Y-68540650D01*
X153024997Y-68536670D01*
X153024080Y-68525021D01*
X153022709Y-68481374D01*
X153022709Y-68481372D01*
X153017120Y-68462137D01*
X153013174Y-68443084D01*
X153010664Y-68423208D01*
X152994578Y-68382581D01*
X152990803Y-68371554D01*
X152978617Y-68329610D01*
X152968421Y-68312369D01*
X152959860Y-68294893D01*
X152952487Y-68276270D01*
X152948139Y-68270285D01*
X152924662Y-68204478D01*
X152924522Y-68199600D01*
X152924459Y-68199005D01*
X152924460Y-68199000D01*
X152914050Y-68099958D01*
X152926619Y-68031232D01*
X152974351Y-67980208D01*
X153037371Y-67963000D01*
X155362000Y-67963000D01*
X155362000Y-66185000D01*
X152695000Y-66185000D01*
X152695000Y-67333700D01*
X152675315Y-67400739D01*
X152622511Y-67446494D01*
X152553353Y-67456438D01*
X152498115Y-67434018D01*
X152471734Y-67414851D01*
X152471729Y-67414848D01*
X152298807Y-67337857D01*
X152298802Y-67337855D01*
X152153001Y-67306865D01*
X152113646Y-67298500D01*
X151924354Y-67298500D01*
X151891897Y-67305398D01*
X151739197Y-67337855D01*
X151739192Y-67337857D01*
X151566271Y-67414848D01*
X151494885Y-67466713D01*
X151429078Y-67490192D01*
X151361024Y-67474366D01*
X151312330Y-67424260D01*
X151298000Y-67366394D01*
X151298000Y-66185000D01*
X148631000Y-66185000D01*
X145583000Y-66185000D01*
X145583000Y-63645000D01*
X142535000Y-63645000D01*
X137455000Y-63645000D01*
X137455000Y-60185500D01*
X137474685Y-60118461D01*
X137527489Y-60072706D01*
X137579000Y-60061500D01*
X138500548Y-60061500D01*
X138567587Y-60081185D01*
X138588229Y-60097819D01*
X139326197Y-60835788D01*
X139336022Y-60848051D01*
X139336243Y-60847869D01*
X139341211Y-60853874D01*
X139341213Y-60853876D01*
X139341214Y-60853877D01*
X139390222Y-60899899D01*
X139393021Y-60902612D01*
X139412522Y-60922114D01*
X139412526Y-60922117D01*
X139412529Y-60922120D01*
X139415702Y-60924581D01*
X139424574Y-60932159D01*
X139456418Y-60962062D01*
X139473976Y-60971714D01*
X139490233Y-60982393D01*
X139506064Y-60994673D01*
X139535803Y-61007542D01*
X139546152Y-61012021D01*
X139556641Y-61017160D01*
X139580457Y-61030252D01*
X139594908Y-61038197D01*
X139607523Y-61041435D01*
X139614305Y-61043177D01*
X139632719Y-61049481D01*
X139651104Y-61057438D01*
X139694261Y-61064273D01*
X139705656Y-61066632D01*
X139747981Y-61077500D01*
X139768016Y-61077500D01*
X139787413Y-61079026D01*
X139807196Y-61082160D01*
X139850675Y-61078050D01*
X139862344Y-61077500D01*
X146856257Y-61077500D01*
X146871877Y-61079224D01*
X146871904Y-61078939D01*
X146879660Y-61079671D01*
X146879667Y-61079673D01*
X146946873Y-61077561D01*
X146950768Y-61077500D01*
X146978346Y-61077500D01*
X146978350Y-61077500D01*
X146982324Y-61076997D01*
X146993963Y-61076080D01*
X147037627Y-61074709D01*
X147056869Y-61069117D01*
X147075912Y-61065174D01*
X147095792Y-61062664D01*
X147136401Y-61046585D01*
X147147444Y-61042803D01*
X147189390Y-61030618D01*
X147206629Y-61020422D01*
X147224103Y-61011862D01*
X147242727Y-61004488D01*
X147242727Y-61004487D01*
X147242732Y-61004486D01*
X147278083Y-60978800D01*
X147287814Y-60972408D01*
X147325420Y-60950170D01*
X147339589Y-60935999D01*
X147354379Y-60923368D01*
X147370587Y-60911594D01*
X147395454Y-60881534D01*
X147453352Y-60842424D01*
X147523204Y-60840826D01*
X147582831Y-60877245D01*
X147613302Y-60940120D01*
X147615000Y-60960571D01*
X147615000Y-65423000D01*
X154600000Y-65423000D01*
X154600000Y-60216000D01*
X148358952Y-60216000D01*
X148291913Y-60196315D01*
X148246158Y-60143511D01*
X148236214Y-60074353D01*
X148265239Y-60010797D01*
X148271252Y-60004337D01*
X148338792Y-59936797D01*
X148351042Y-59926985D01*
X148350859Y-59926764D01*
X148356868Y-59921791D01*
X148356877Y-59921786D01*
X148402949Y-59872722D01*
X148405566Y-59870023D01*
X148425120Y-59850471D01*
X148427576Y-59847303D01*
X148435156Y-59838427D01*
X148465062Y-59806582D01*
X148474715Y-59789020D01*
X148485389Y-59772770D01*
X148497673Y-59756936D01*
X148515019Y-59716850D01*
X148520157Y-59706362D01*
X148522281Y-59702500D01*
X148541197Y-59668092D01*
X148546177Y-59648691D01*
X148552478Y-59630288D01*
X148560438Y-59611896D01*
X148567272Y-59568741D01*
X148569635Y-59557331D01*
X148580500Y-59515019D01*
X148580500Y-59494983D01*
X148582027Y-59475582D01*
X148584035Y-59462909D01*
X148585160Y-59455804D01*
X148585160Y-59455803D01*
X148585405Y-59448007D01*
X148588626Y-59448108D01*
X148599108Y-59394054D01*
X148647381Y-59343542D01*
X148709259Y-59327000D01*
X151298000Y-59327000D01*
X151298000Y-57549000D01*
X152695000Y-57549000D01*
X152695000Y-59327000D01*
X155362000Y-59327000D01*
X155362000Y-57549000D01*
X152695000Y-57549000D01*
X151298000Y-57549000D01*
X148704500Y-57549000D01*
X148637461Y-57529315D01*
X148591706Y-57476511D01*
X148580500Y-57425000D01*
X148580500Y-56916451D01*
X148600185Y-56849412D01*
X148616815Y-56828774D01*
X149016568Y-56429020D01*
X149077889Y-56395537D01*
X149147580Y-56400521D01*
X149167718Y-56410178D01*
X149198727Y-56428656D01*
X149198730Y-56428657D01*
X149430374Y-56519046D01*
X149430381Y-56519048D01*
X149430386Y-56519050D01*
X149673763Y-56570081D01*
X149777158Y-56576500D01*
X149777169Y-56576500D01*
X149942831Y-56576500D01*
X149942842Y-56576500D01*
X150046237Y-56570081D01*
X150289614Y-56519050D01*
X150289621Y-56519046D01*
X150289625Y-56519046D01*
X150430038Y-56464256D01*
X150521273Y-56428656D01*
X150734894Y-56301366D01*
X150734898Y-56301361D01*
X150734902Y-56301360D01*
X150924649Y-56140651D01*
X150924650Y-56140650D01*
X151035378Y-56009915D01*
X151093726Y-55971480D01*
X151163591Y-55970693D01*
X151222792Y-56007802D01*
X151224622Y-56009915D01*
X151335349Y-56140650D01*
X151335350Y-56140651D01*
X151525097Y-56301360D01*
X151525103Y-56301363D01*
X151525106Y-56301366D01*
X151738727Y-56428656D01*
X151738730Y-56428657D01*
X151970374Y-56519046D01*
X151970381Y-56519048D01*
X151970386Y-56519050D01*
X152213763Y-56570081D01*
X152317158Y-56576500D01*
X152317169Y-56576500D01*
X152482831Y-56576500D01*
X152482842Y-56576500D01*
X152586237Y-56570081D01*
X152829614Y-56519050D01*
X152829621Y-56519046D01*
X152829625Y-56519046D01*
X152970038Y-56464256D01*
X153061273Y-56428656D01*
X153274894Y-56301366D01*
X153274898Y-56301361D01*
X153274902Y-56301360D01*
X153464649Y-56140651D01*
X153464651Y-56140649D01*
X153625360Y-55950902D01*
X153625361Y-55950898D01*
X153625366Y-55950894D01*
X153752656Y-55737273D01*
X153843050Y-55505614D01*
X153894081Y-55262237D01*
X153900500Y-55158842D01*
X153900500Y-54243158D01*
X153894081Y-54139763D01*
X153843050Y-53896386D01*
X153843048Y-53896381D01*
X153843046Y-53896374D01*
X153752657Y-53664730D01*
X153752656Y-53664727D01*
X153625366Y-53451106D01*
X153625363Y-53451103D01*
X153625360Y-53451097D01*
X153464651Y-53261350D01*
X153464649Y-53261348D01*
X153274902Y-53100639D01*
X153274894Y-53100634D01*
X153061273Y-52973344D01*
X153061271Y-52973343D01*
X153061269Y-52973342D01*
X152829625Y-52882953D01*
X152829615Y-52882950D01*
X152586238Y-52831919D01*
X152586235Y-52831918D01*
X152482850Y-52825500D01*
X152482842Y-52825500D01*
X152317158Y-52825500D01*
X152317149Y-52825500D01*
X152213764Y-52831918D01*
X152213761Y-52831919D01*
X151970384Y-52882950D01*
X151970374Y-52882953D01*
X151738730Y-52973342D01*
X151525097Y-53100639D01*
X151335350Y-53261348D01*
X151335348Y-53261350D01*
X151224622Y-53392084D01*
X151166273Y-53430519D01*
X151096408Y-53431306D01*
X151037208Y-53394197D01*
X151035378Y-53392084D01*
X150924651Y-53261350D01*
X150924649Y-53261348D01*
X150734902Y-53100639D01*
X150734894Y-53100634D01*
X150521273Y-52973344D01*
X150521271Y-52973343D01*
X150521269Y-52973342D01*
X150314547Y-52892679D01*
X150306687Y-52889612D01*
X150272727Y-52869641D01*
X150197823Y-52807676D01*
X150197819Y-52807674D01*
X150197818Y-52807673D01*
X150054828Y-52740387D01*
X150054825Y-52740385D01*
X149974923Y-52725143D01*
X149899588Y-52710773D01*
X149899584Y-52710773D01*
X149741862Y-52720696D01*
X149741859Y-52720696D01*
X149591558Y-52769533D01*
X149458123Y-52854214D01*
X149450761Y-52862053D01*
X149405450Y-52892679D01*
X149198730Y-52973342D01*
X148985097Y-53100639D01*
X148795350Y-53261348D01*
X148795348Y-53261350D01*
X148684622Y-53392084D01*
X148626273Y-53430519D01*
X148556408Y-53431306D01*
X148497208Y-53394197D01*
X148495378Y-53392084D01*
X148384651Y-53261350D01*
X148384649Y-53261348D01*
X148194902Y-53100639D01*
X148194894Y-53100634D01*
X147981273Y-52973344D01*
X147981271Y-52973343D01*
X147981269Y-52973342D01*
X147749625Y-52882953D01*
X147749615Y-52882950D01*
X147506238Y-52831919D01*
X147506235Y-52831918D01*
X147402850Y-52825500D01*
X147402842Y-52825500D01*
X147237158Y-52825500D01*
X147237149Y-52825500D01*
X147133764Y-52831918D01*
X147133761Y-52831919D01*
X146890384Y-52882950D01*
X146890374Y-52882953D01*
X146658730Y-52973342D01*
X146445097Y-53100639D01*
X146255350Y-53261348D01*
X146255348Y-53261350D01*
X146144622Y-53392084D01*
X146086273Y-53430519D01*
X146016408Y-53431306D01*
X145957208Y-53394197D01*
X145955378Y-53392084D01*
X145844651Y-53261350D01*
X145844649Y-53261348D01*
X145654902Y-53100639D01*
X145654894Y-53100634D01*
X145441273Y-52973344D01*
X145441271Y-52973343D01*
X145441269Y-52973342D01*
X145209625Y-52882953D01*
X145209615Y-52882950D01*
X144966238Y-52831919D01*
X144966235Y-52831918D01*
X144862850Y-52825500D01*
X144862842Y-52825500D01*
X144697158Y-52825500D01*
X144697149Y-52825500D01*
X144593764Y-52831918D01*
X144593761Y-52831919D01*
X144350384Y-52882950D01*
X144350374Y-52882953D01*
X144118730Y-52973342D01*
X143905097Y-53100639D01*
X143715350Y-53261348D01*
X143715348Y-53261350D01*
X143604622Y-53392084D01*
X143546273Y-53430519D01*
X143476408Y-53431306D01*
X143417208Y-53394197D01*
X143415378Y-53392084D01*
X143304651Y-53261350D01*
X143304649Y-53261348D01*
X143114902Y-53100639D01*
X143114894Y-53100634D01*
X142901273Y-52973344D01*
X142901271Y-52973343D01*
X142901269Y-52973342D01*
X142669625Y-52882953D01*
X142669615Y-52882950D01*
X142426238Y-52831919D01*
X142426235Y-52831918D01*
X142322850Y-52825500D01*
X142322842Y-52825500D01*
X142157158Y-52825500D01*
X142157149Y-52825500D01*
X142053764Y-52831918D01*
X142053761Y-52831919D01*
X141810384Y-52882950D01*
X141810374Y-52882953D01*
X141578730Y-52973342D01*
X141365097Y-53100639D01*
X141175350Y-53261348D01*
X141175348Y-53261350D01*
X141064622Y-53392084D01*
X141006273Y-53430519D01*
X140936408Y-53431306D01*
X140877208Y-53394197D01*
X140875378Y-53392084D01*
X140764651Y-53261350D01*
X140764649Y-53261348D01*
X140574902Y-53100639D01*
X140574894Y-53100634D01*
X140361273Y-52973344D01*
X140361271Y-52973343D01*
X140361269Y-52973342D01*
X140129625Y-52882953D01*
X140129615Y-52882950D01*
X139886238Y-52831919D01*
X139886235Y-52831918D01*
X139782850Y-52825500D01*
X139782842Y-52825500D01*
X139617158Y-52825500D01*
X139617149Y-52825500D01*
X139513764Y-52831918D01*
X139513761Y-52831919D01*
X139270384Y-52882950D01*
X139270374Y-52882953D01*
X139038730Y-52973342D01*
X138825097Y-53100639D01*
X138635350Y-53261348D01*
X138635348Y-53261350D01*
X138524622Y-53392084D01*
X138466273Y-53430519D01*
X138396408Y-53431306D01*
X138337208Y-53394197D01*
X138335378Y-53392084D01*
X138224651Y-53261350D01*
X138224649Y-53261348D01*
X138034902Y-53100639D01*
X138034894Y-53100634D01*
X137821273Y-52973344D01*
X137821271Y-52973343D01*
X137821269Y-52973342D01*
X137589625Y-52882953D01*
X137589615Y-52882950D01*
X137346238Y-52831919D01*
X137346235Y-52831918D01*
X137242850Y-52825500D01*
X137242842Y-52825500D01*
X137077158Y-52825500D01*
X137077149Y-52825500D01*
X136973764Y-52831918D01*
X136973761Y-52831919D01*
X136730384Y-52882950D01*
X136730374Y-52882953D01*
X136498730Y-52973342D01*
X136285097Y-53100639D01*
X136095350Y-53261348D01*
X136095348Y-53261350D01*
X135934639Y-53451097D01*
X135807342Y-53664730D01*
X135716953Y-53896374D01*
X135716950Y-53896384D01*
X135665919Y-54139761D01*
X135665918Y-54139764D01*
X135659500Y-54243149D01*
X135659500Y-55158850D01*
X135665918Y-55262235D01*
X135665919Y-55262238D01*
X135716950Y-55505615D01*
X135716953Y-55505625D01*
X135807342Y-55737269D01*
X135807344Y-55737273D01*
X135882885Y-55864047D01*
X135934639Y-55950902D01*
X136095348Y-56140649D01*
X136095350Y-56140651D01*
X136285097Y-56301360D01*
X136285103Y-56301363D01*
X136285106Y-56301366D01*
X136498727Y-56428656D01*
X136498730Y-56428657D01*
X136730374Y-56519046D01*
X136730381Y-56519048D01*
X136730386Y-56519050D01*
X136973763Y-56570081D01*
X137077158Y-56576500D01*
X137077169Y-56576500D01*
X137242831Y-56576500D01*
X137242842Y-56576500D01*
X137346237Y-56570081D01*
X137589614Y-56519050D01*
X137589621Y-56519046D01*
X137589625Y-56519046D01*
X137730038Y-56464256D01*
X137821273Y-56428656D01*
X138034894Y-56301366D01*
X138034898Y-56301361D01*
X138034902Y-56301360D01*
X138224649Y-56140651D01*
X138224650Y-56140650D01*
X138335378Y-56009915D01*
X138393726Y-55971480D01*
X138463591Y-55970693D01*
X138522792Y-56007802D01*
X138524622Y-56009915D01*
X138635349Y-56140650D01*
X138635350Y-56140651D01*
X138825097Y-56301360D01*
X138825103Y-56301363D01*
X138825106Y-56301366D01*
X139038727Y-56428656D01*
X139038730Y-56428657D01*
X139270374Y-56519046D01*
X139270381Y-56519048D01*
X139270386Y-56519050D01*
X139513763Y-56570081D01*
X139617158Y-56576500D01*
X139617169Y-56576500D01*
X139782831Y-56576500D01*
X139782842Y-56576500D01*
X139886237Y-56570081D01*
X140129614Y-56519050D01*
X140129621Y-56519046D01*
X140129625Y-56519046D01*
X140270038Y-56464256D01*
X140361273Y-56428656D01*
X140574894Y-56301366D01*
X140574898Y-56301361D01*
X140574902Y-56301360D01*
X140764649Y-56140651D01*
X140764650Y-56140650D01*
X140875378Y-56009915D01*
X140933726Y-55971480D01*
X141003591Y-55970693D01*
X141062792Y-56007802D01*
X141064622Y-56009915D01*
X141175349Y-56140650D01*
X141175350Y-56140651D01*
X141365097Y-56301360D01*
X141365103Y-56301363D01*
X141365106Y-56301366D01*
X141578727Y-56428656D01*
X141578730Y-56428657D01*
X141810374Y-56519046D01*
X141810381Y-56519048D01*
X141810386Y-56519050D01*
X142053763Y-56570081D01*
X142157158Y-56576500D01*
X142157169Y-56576500D01*
X142322831Y-56576500D01*
X142322842Y-56576500D01*
X142426237Y-56570081D01*
X142669614Y-56519050D01*
X142669621Y-56519046D01*
X142669625Y-56519046D01*
X142810038Y-56464256D01*
X142901273Y-56428656D01*
X143114894Y-56301366D01*
X143114898Y-56301361D01*
X143114902Y-56301360D01*
X143304649Y-56140651D01*
X143304650Y-56140650D01*
X143415378Y-56009915D01*
X143473726Y-55971480D01*
X143543591Y-55970693D01*
X143602792Y-56007802D01*
X143604622Y-56009915D01*
X143715349Y-56140650D01*
X143715350Y-56140651D01*
X143905097Y-56301360D01*
X143905103Y-56301363D01*
X143905106Y-56301366D01*
X144118727Y-56428656D01*
X144118730Y-56428657D01*
X144350374Y-56519046D01*
X144350381Y-56519048D01*
X144350386Y-56519050D01*
X144593763Y-56570081D01*
X144697158Y-56576500D01*
X144697169Y-56576500D01*
X144862831Y-56576500D01*
X144862842Y-56576500D01*
X144966237Y-56570081D01*
X145209614Y-56519050D01*
X145209621Y-56519046D01*
X145209625Y-56519046D01*
X145350038Y-56464256D01*
X145441273Y-56428656D01*
X145654894Y-56301366D01*
X145654898Y-56301361D01*
X145654902Y-56301360D01*
X145844649Y-56140651D01*
X145844650Y-56140650D01*
X145955378Y-56009915D01*
X146013726Y-55971480D01*
X146083591Y-55970693D01*
X146142792Y-56007802D01*
X146144622Y-56009915D01*
X146255349Y-56140650D01*
X146255350Y-56140651D01*
X146445097Y-56301360D01*
X146445103Y-56301363D01*
X146445106Y-56301366D01*
X146658727Y-56428656D01*
X146658730Y-56428657D01*
X146890374Y-56519046D01*
X146890381Y-56519048D01*
X146890386Y-56519050D01*
X147133763Y-56570081D01*
X147213183Y-56575011D01*
X147278874Y-56598811D01*
X147321269Y-56654349D01*
X147329500Y-56698773D01*
X147329500Y-59125547D01*
X147309815Y-59192586D01*
X147293181Y-59213228D01*
X147255181Y-59251228D01*
X147193858Y-59284713D01*
X147124166Y-59279729D01*
X147068233Y-59237857D01*
X147043816Y-59172393D01*
X147043500Y-59163547D01*
X147043500Y-56850500D01*
X145011500Y-56850500D01*
X145011500Y-59702500D01*
X144991815Y-59769539D01*
X144939011Y-59815294D01*
X144887500Y-59826500D01*
X140137452Y-59826500D01*
X140070413Y-59806815D01*
X140049771Y-59790181D01*
X139682874Y-59423284D01*
X139311803Y-59052212D01*
X139301980Y-59039950D01*
X139301759Y-59040134D01*
X139296786Y-59034122D01*
X139247776Y-58988099D01*
X139244977Y-58985386D01*
X139225477Y-58965885D01*
X139225471Y-58965880D01*
X139222286Y-58963409D01*
X139213434Y-58955848D01*
X139181582Y-58925938D01*
X139181580Y-58925936D01*
X139181577Y-58925935D01*
X139164029Y-58916288D01*
X139147763Y-58905604D01*
X139131932Y-58893324D01*
X139091849Y-58875978D01*
X139081363Y-58870841D01*
X139043094Y-58849803D01*
X139043092Y-58849802D01*
X139023693Y-58844822D01*
X139005281Y-58838518D01*
X138986898Y-58830562D01*
X138986892Y-58830560D01*
X138943760Y-58823729D01*
X138932322Y-58821361D01*
X138890020Y-58810500D01*
X138890019Y-58810500D01*
X138869984Y-58810500D01*
X138850586Y-58808973D01*
X138843162Y-58807797D01*
X138830805Y-58805840D01*
X138830804Y-58805840D01*
X138787325Y-58809950D01*
X138775656Y-58810500D01*
X133432737Y-58810500D01*
X133417120Y-58808776D01*
X133417093Y-58809062D01*
X133409331Y-58808327D01*
X133342144Y-58810439D01*
X133338250Y-58810500D01*
X133310650Y-58810500D01*
X133306962Y-58810965D01*
X133306649Y-58811005D01*
X133295031Y-58811918D01*
X133251372Y-58813290D01*
X133251369Y-58813291D01*
X133232126Y-58818881D01*
X133213083Y-58822825D01*
X133193204Y-58825336D01*
X133193203Y-58825337D01*
X133152593Y-58841415D01*
X133141548Y-58845197D01*
X133099608Y-58857383D01*
X133099604Y-58857385D01*
X133082365Y-58867580D01*
X133064898Y-58876137D01*
X133046269Y-58883512D01*
X133046267Y-58883514D01*
X133010926Y-58909189D01*
X133001168Y-58915599D01*
X132963580Y-58937828D01*
X132949408Y-58952000D01*
X132934623Y-58964628D01*
X132918412Y-58976407D01*
X132890571Y-59010059D01*
X132882711Y-59018696D01*
X130980680Y-60920727D01*
X130919357Y-60954212D01*
X130849665Y-60949228D01*
X130805318Y-60920727D01*
X126716803Y-56832212D01*
X126706980Y-56819950D01*
X126706759Y-56820134D01*
X126701786Y-56814122D01*
X126652776Y-56768099D01*
X126649977Y-56765386D01*
X126630477Y-56745885D01*
X126630471Y-56745880D01*
X126627286Y-56743409D01*
X126618434Y-56735848D01*
X126586582Y-56705938D01*
X126586580Y-56705936D01*
X126586577Y-56705935D01*
X126569029Y-56696288D01*
X126552763Y-56685604D01*
X126536932Y-56673324D01*
X126496849Y-56655978D01*
X126486363Y-56650841D01*
X126448094Y-56629803D01*
X126448092Y-56629802D01*
X126428693Y-56624822D01*
X126410281Y-56618518D01*
X126391898Y-56610562D01*
X126391892Y-56610560D01*
X126348760Y-56603729D01*
X126337322Y-56601361D01*
X126295020Y-56590500D01*
X126295019Y-56590500D01*
X126274984Y-56590500D01*
X126255586Y-56588973D01*
X126248162Y-56587797D01*
X126235805Y-56585840D01*
X126235804Y-56585840D01*
X126192325Y-56589950D01*
X126180656Y-56590500D01*
X123989309Y-56590500D01*
X123922270Y-56570815D01*
X123901628Y-56554181D01*
X123895370Y-56547923D01*
X123895362Y-56547917D01*
X123753896Y-56464255D01*
X123753893Y-56464254D01*
X123596073Y-56418402D01*
X123596067Y-56418401D01*
X123559201Y-56415500D01*
X123559194Y-56415500D01*
X122252806Y-56415500D01*
X122252798Y-56415500D01*
X122215932Y-56418401D01*
X122215926Y-56418402D01*
X122058106Y-56464254D01*
X122058103Y-56464255D01*
X121916637Y-56547917D01*
X121916629Y-56547923D01*
X121800423Y-56664129D01*
X121800417Y-56664137D01*
X121716755Y-56805603D01*
X121716754Y-56805606D01*
X121670902Y-56963426D01*
X121670901Y-56963432D01*
X121668000Y-57000298D01*
X121668000Y-57241500D01*
X121648315Y-57308539D01*
X121595511Y-57354294D01*
X121544000Y-57365500D01*
X120377798Y-57365500D01*
X120340932Y-57368401D01*
X120340926Y-57368402D01*
X120183106Y-57414254D01*
X120183103Y-57414255D01*
X120041637Y-57497917D01*
X120041629Y-57497923D01*
X120035372Y-57504181D01*
X119974049Y-57537666D01*
X119947691Y-57540500D01*
X117684743Y-57540500D01*
X117669122Y-57538775D01*
X117669096Y-57539061D01*
X117661334Y-57538327D01*
X117661333Y-57538327D01*
X117599109Y-57540282D01*
X117594127Y-57540439D01*
X117590232Y-57540500D01*
X117562647Y-57540500D01*
X117558661Y-57541003D01*
X117547033Y-57541918D01*
X117503373Y-57543290D01*
X117484129Y-57548881D01*
X117465079Y-57552825D01*
X117445211Y-57555334D01*
X117445210Y-57555334D01*
X117404599Y-57571413D01*
X117393554Y-57575194D01*
X117351614Y-57587379D01*
X117351610Y-57587381D01*
X117334366Y-57597579D01*
X117316905Y-57606133D01*
X117298274Y-57613510D01*
X117298262Y-57613517D01*
X117262933Y-57639185D01*
X117253173Y-57645596D01*
X117215580Y-57667829D01*
X117201414Y-57681995D01*
X117186624Y-57694627D01*
X117170414Y-57706404D01*
X117170411Y-57706407D01*
X117142573Y-57740058D01*
X117134711Y-57748697D01*
X112482681Y-62400727D01*
X112421358Y-62434212D01*
X112351666Y-62429228D01*
X112307319Y-62400727D01*
X112301477Y-62394885D01*
X112301471Y-62394880D01*
X112298286Y-62392409D01*
X112289434Y-62384848D01*
X112257582Y-62354938D01*
X112257580Y-62354936D01*
X112257577Y-62354935D01*
X112240029Y-62345288D01*
X112223763Y-62334604D01*
X112207932Y-62322324D01*
X112167849Y-62304978D01*
X112157363Y-62299841D01*
X112119094Y-62278803D01*
X112119092Y-62278802D01*
X112099693Y-62273822D01*
X112081281Y-62267518D01*
X112062898Y-62259562D01*
X112062892Y-62259560D01*
X112019760Y-62252729D01*
X112008322Y-62250361D01*
X111966020Y-62239500D01*
X111966019Y-62239500D01*
X111945984Y-62239500D01*
X111926586Y-62237973D01*
X111919162Y-62236797D01*
X111906805Y-62234840D01*
X111906804Y-62234840D01*
X111863325Y-62238950D01*
X111851656Y-62239500D01*
X104730743Y-62239500D01*
X104715122Y-62237775D01*
X104715096Y-62238061D01*
X104707334Y-62237327D01*
X104707333Y-62237327D01*
X104655688Y-62238950D01*
X104640127Y-62239439D01*
X104636232Y-62239500D01*
X104608647Y-62239500D01*
X104604661Y-62240003D01*
X104593033Y-62240918D01*
X104549373Y-62242290D01*
X104530129Y-62247881D01*
X104511079Y-62251825D01*
X104491211Y-62254334D01*
X104491210Y-62254334D01*
X104450599Y-62270413D01*
X104439554Y-62274194D01*
X104397614Y-62286379D01*
X104397610Y-62286381D01*
X104380366Y-62296579D01*
X104362905Y-62305133D01*
X104344274Y-62312510D01*
X104344262Y-62312517D01*
X104308933Y-62338185D01*
X104299173Y-62344596D01*
X104261580Y-62366829D01*
X104247414Y-62380995D01*
X104232624Y-62393627D01*
X104216414Y-62405404D01*
X104216411Y-62405407D01*
X104188573Y-62439058D01*
X104180711Y-62447697D01*
X98168208Y-68460199D01*
X98155951Y-68470020D01*
X98156134Y-68470241D01*
X98150122Y-68475214D01*
X98104098Y-68524223D01*
X98101391Y-68527016D01*
X98081889Y-68546517D01*
X98081875Y-68546534D01*
X98079407Y-68549715D01*
X98071843Y-68558570D01*
X98041937Y-68590418D01*
X98041936Y-68590420D01*
X98032284Y-68607976D01*
X98021610Y-68624226D01*
X98009329Y-68640061D01*
X98009324Y-68640068D01*
X97991975Y-68680158D01*
X97986838Y-68690644D01*
X97965803Y-68728906D01*
X97960822Y-68748307D01*
X97954521Y-68766710D01*
X97946562Y-68785102D01*
X97946561Y-68785105D01*
X97939728Y-68828243D01*
X97937360Y-68839674D01*
X97926501Y-68881971D01*
X97926500Y-68881982D01*
X97926500Y-68902016D01*
X97924973Y-68921415D01*
X97921840Y-68941194D01*
X97921840Y-68941195D01*
X97925950Y-68984674D01*
X97926500Y-68996343D01*
X97926500Y-70352773D01*
X97906815Y-70419812D01*
X97873623Y-70454348D01*
X97680597Y-70589505D01*
X97513508Y-70756594D01*
X97383269Y-70942595D01*
X97328692Y-70986219D01*
X97259193Y-70993412D01*
X97196839Y-70961890D01*
X97180119Y-70942594D01*
X97050113Y-70756926D01*
X97050108Y-70756920D01*
X96883082Y-70589894D01*
X96689578Y-70454399D01*
X96475492Y-70354570D01*
X96475486Y-70354567D01*
X96262000Y-70297364D01*
X96262000Y-71192498D01*
X96154315Y-71143320D01*
X96047763Y-71128000D01*
X95976237Y-71128000D01*
X95869685Y-71143320D01*
X95762000Y-71192498D01*
X95762000Y-70297364D01*
X95761999Y-70297364D01*
X95548513Y-70354567D01*
X95548507Y-70354570D01*
X95334422Y-70454399D01*
X95334420Y-70454400D01*
X95140926Y-70589886D01*
X95140920Y-70589891D01*
X94973891Y-70756920D01*
X94973890Y-70756922D01*
X94843880Y-70942595D01*
X94789303Y-70986219D01*
X94719804Y-70993412D01*
X94657450Y-70961890D01*
X94640730Y-70942594D01*
X94510494Y-70756597D01*
X94343402Y-70589506D01*
X94343395Y-70589501D01*
X94149834Y-70453967D01*
X94149830Y-70453965D01*
X94097500Y-70429563D01*
X93935663Y-70354097D01*
X93935659Y-70354096D01*
X93935655Y-70354094D01*
X93707413Y-70292938D01*
X93707403Y-70292936D01*
X93472001Y-70272341D01*
X93471999Y-70272341D01*
X93236596Y-70292936D01*
X93236586Y-70292938D01*
X93008344Y-70354094D01*
X93008335Y-70354098D01*
X92794171Y-70453964D01*
X92794169Y-70453965D01*
X92600597Y-70589505D01*
X92433505Y-70756597D01*
X92297965Y-70950169D01*
X92297964Y-70950171D01*
X92198098Y-71164335D01*
X92198094Y-71164344D01*
X92136938Y-71392586D01*
X92136936Y-71392596D01*
X92116341Y-71627999D01*
X92116341Y-71628000D01*
X85544500Y-71628000D01*
X85544500Y-54991001D01*
X111089532Y-54991001D01*
X111109364Y-55217686D01*
X111109366Y-55217697D01*
X111168258Y-55437488D01*
X111168261Y-55437497D01*
X111264431Y-55643732D01*
X111264432Y-55643734D01*
X111394954Y-55830141D01*
X111555858Y-55991045D01*
X111602693Y-56023839D01*
X111742266Y-56121568D01*
X111948504Y-56217739D01*
X112168308Y-56276635D01*
X112330230Y-56290801D01*
X112394998Y-56296468D01*
X112395000Y-56296468D01*
X112395002Y-56296468D01*
X112451673Y-56291509D01*
X112621692Y-56276635D01*
X112841496Y-56217739D01*
X113047734Y-56121568D01*
X113234139Y-55991047D01*
X113395047Y-55830139D01*
X113525568Y-55643734D01*
X113621739Y-55437496D01*
X113680635Y-55217692D01*
X113700468Y-54991001D01*
X114518532Y-54991001D01*
X114538364Y-55217686D01*
X114538366Y-55217697D01*
X114597258Y-55437488D01*
X114597261Y-55437497D01*
X114693431Y-55643732D01*
X114693432Y-55643734D01*
X114823954Y-55830141D01*
X114984858Y-55991045D01*
X115031693Y-56023839D01*
X115171266Y-56121568D01*
X115377504Y-56217739D01*
X115597308Y-56276635D01*
X115759230Y-56290801D01*
X115823998Y-56296468D01*
X115824000Y-56296468D01*
X115824002Y-56296468D01*
X115880673Y-56291509D01*
X116050692Y-56276635D01*
X116270496Y-56217739D01*
X116476734Y-56121568D01*
X116663139Y-55991047D01*
X116824047Y-55830139D01*
X116954568Y-55643734D01*
X117050739Y-55437496D01*
X117109635Y-55217692D01*
X117129468Y-54991000D01*
X117118357Y-54864001D01*
X126202532Y-54864001D01*
X126222364Y-55090686D01*
X126222366Y-55090697D01*
X126281258Y-55310488D01*
X126281261Y-55310497D01*
X126377431Y-55516732D01*
X126377432Y-55516734D01*
X126507954Y-55703141D01*
X126668858Y-55864045D01*
X126668861Y-55864047D01*
X126855266Y-55994568D01*
X127061504Y-56090739D01*
X127281308Y-56149635D01*
X127443230Y-56163801D01*
X127507998Y-56169468D01*
X127508000Y-56169468D01*
X127508002Y-56169468D01*
X127564673Y-56164509D01*
X127734692Y-56149635D01*
X127954496Y-56090739D01*
X128160734Y-55994568D01*
X128347139Y-55864047D01*
X128508047Y-55703139D01*
X128638568Y-55516734D01*
X128734739Y-55310496D01*
X128793635Y-55090692D01*
X128813468Y-54864001D01*
X129570532Y-54864001D01*
X129590364Y-55090686D01*
X129590366Y-55090697D01*
X129649258Y-55310488D01*
X129649261Y-55310497D01*
X129745431Y-55516732D01*
X129745432Y-55516734D01*
X129875954Y-55703141D01*
X130036858Y-55864045D01*
X130036861Y-55864047D01*
X130223266Y-55994568D01*
X130429504Y-56090739D01*
X130649308Y-56149635D01*
X130811230Y-56163801D01*
X130875998Y-56169468D01*
X130876000Y-56169468D01*
X130876002Y-56169468D01*
X130932673Y-56164509D01*
X131102692Y-56149635D01*
X131322496Y-56090739D01*
X131528734Y-55994568D01*
X131715139Y-55864047D01*
X131876047Y-55703139D01*
X132006568Y-55516734D01*
X132102739Y-55310496D01*
X132161635Y-55090692D01*
X132181468Y-54864000D01*
X132161635Y-54637308D01*
X132102739Y-54417504D01*
X132006568Y-54211266D01*
X131876047Y-54024861D01*
X131876045Y-54024858D01*
X131715141Y-53863954D01*
X131528734Y-53733432D01*
X131528732Y-53733431D01*
X131322497Y-53637261D01*
X131322488Y-53637258D01*
X131102697Y-53578366D01*
X131102693Y-53578365D01*
X131102692Y-53578365D01*
X131102691Y-53578364D01*
X131102686Y-53578364D01*
X130876002Y-53558532D01*
X130875998Y-53558532D01*
X130649313Y-53578364D01*
X130649302Y-53578366D01*
X130429511Y-53637258D01*
X130429502Y-53637261D01*
X130223267Y-53733431D01*
X130223265Y-53733432D01*
X130036858Y-53863954D01*
X129875954Y-54024858D01*
X129745432Y-54211265D01*
X129745431Y-54211267D01*
X129649261Y-54417502D01*
X129649258Y-54417511D01*
X129590366Y-54637302D01*
X129590364Y-54637313D01*
X129570532Y-54863998D01*
X129570532Y-54864001D01*
X128813468Y-54864001D01*
X128813468Y-54864000D01*
X128793635Y-54637308D01*
X128734739Y-54417504D01*
X128638568Y-54211266D01*
X128508047Y-54024861D01*
X128508045Y-54024858D01*
X128347141Y-53863954D01*
X128160734Y-53733432D01*
X128160732Y-53733431D01*
X127954497Y-53637261D01*
X127954488Y-53637258D01*
X127734697Y-53578366D01*
X127734693Y-53578365D01*
X127734692Y-53578365D01*
X127734691Y-53578364D01*
X127734686Y-53578364D01*
X127508002Y-53558532D01*
X127507998Y-53558532D01*
X127281313Y-53578364D01*
X127281302Y-53578366D01*
X127061511Y-53637258D01*
X127061502Y-53637261D01*
X126855267Y-53733431D01*
X126855265Y-53733432D01*
X126668858Y-53863954D01*
X126507954Y-54024858D01*
X126377432Y-54211265D01*
X126377431Y-54211267D01*
X126281261Y-54417502D01*
X126281258Y-54417511D01*
X126222366Y-54637302D01*
X126222364Y-54637313D01*
X126202532Y-54863998D01*
X126202532Y-54864001D01*
X117118357Y-54864001D01*
X117109635Y-54764308D01*
X117050739Y-54544504D01*
X116954568Y-54338266D01*
X116824047Y-54151861D01*
X116824045Y-54151858D01*
X116663141Y-53990954D01*
X116476734Y-53860432D01*
X116476732Y-53860431D01*
X116270497Y-53764261D01*
X116270488Y-53764258D01*
X116050697Y-53705366D01*
X116050693Y-53705365D01*
X116050692Y-53705365D01*
X116050691Y-53705364D01*
X116050686Y-53705364D01*
X115824002Y-53685532D01*
X115823998Y-53685532D01*
X115597313Y-53705364D01*
X115597302Y-53705366D01*
X115377511Y-53764258D01*
X115377502Y-53764261D01*
X115171267Y-53860431D01*
X115171265Y-53860432D01*
X114984858Y-53990954D01*
X114823954Y-54151858D01*
X114693432Y-54338265D01*
X114693431Y-54338267D01*
X114597261Y-54544502D01*
X114597258Y-54544511D01*
X114538366Y-54764302D01*
X114538364Y-54764313D01*
X114518532Y-54990998D01*
X114518532Y-54991001D01*
X113700468Y-54991001D01*
X113700468Y-54991000D01*
X113680635Y-54764308D01*
X113621739Y-54544504D01*
X113525568Y-54338266D01*
X113395047Y-54151861D01*
X113395045Y-54151858D01*
X113234141Y-53990954D01*
X113047734Y-53860432D01*
X113047732Y-53860431D01*
X112841497Y-53764261D01*
X112841488Y-53764258D01*
X112621697Y-53705366D01*
X112621693Y-53705365D01*
X112621692Y-53705365D01*
X112621691Y-53705364D01*
X112621686Y-53705364D01*
X112395002Y-53685532D01*
X112394998Y-53685532D01*
X112168313Y-53705364D01*
X112168302Y-53705366D01*
X111948511Y-53764258D01*
X111948502Y-53764261D01*
X111742267Y-53860431D01*
X111742265Y-53860432D01*
X111555858Y-53990954D01*
X111394954Y-54151858D01*
X111264432Y-54338265D01*
X111264431Y-54338267D01*
X111168261Y-54544502D01*
X111168258Y-54544511D01*
X111109366Y-54764302D01*
X111109364Y-54764313D01*
X111089532Y-54990998D01*
X111089532Y-54991001D01*
X85544500Y-54991001D01*
X85544500Y-52394500D01*
X85564185Y-52327461D01*
X85616989Y-52281706D01*
X85668500Y-52270500D01*
X110321423Y-52270500D01*
X132321627Y-52270500D01*
X157019763Y-52270500D01*
X157086802Y-52290185D01*
G37*
%TD.AperFunction*%
%TD*%
%TA.AperFunction,NonConductor*%
G36*
X134858039Y-60081185D02*
G01*
X134903794Y-60133989D01*
X134915000Y-60185500D01*
X134915000Y-65671500D01*
X134895315Y-65738539D01*
X134842511Y-65784294D01*
X134791000Y-65795500D01*
X132145827Y-65795500D01*
X132078788Y-65775815D01*
X132033033Y-65723011D01*
X132023089Y-65653853D01*
X132033443Y-65619099D01*
X132102739Y-65470496D01*
X132161635Y-65250692D01*
X132181468Y-65024000D01*
X132161635Y-64797308D01*
X132114359Y-64620870D01*
X132102741Y-64577511D01*
X132102738Y-64577502D01*
X132006568Y-64371267D01*
X132006567Y-64371265D01*
X131964972Y-64311861D01*
X131876047Y-64184861D01*
X131876045Y-64184858D01*
X131715140Y-64023953D01*
X131554377Y-63911386D01*
X131510752Y-63856809D01*
X131501500Y-63809811D01*
X131501500Y-62220452D01*
X131521185Y-62153413D01*
X131537819Y-62132771D01*
X133572772Y-60097819D01*
X133634095Y-60064334D01*
X133660453Y-60061500D01*
X134791000Y-60061500D01*
X134858039Y-60081185D01*
G37*
%TD.AperFunction*%
%TA.AperFunction,NonConductor*%
G36*
X125972587Y-57861185D02*
G01*
X125993229Y-57877819D01*
X130214181Y-62098771D01*
X130247666Y-62160094D01*
X130250500Y-62186452D01*
X130250500Y-63809811D01*
X130230815Y-63876850D01*
X130197623Y-63911386D01*
X130036859Y-64023953D01*
X129875954Y-64184858D01*
X129745432Y-64371265D01*
X129745431Y-64371267D01*
X129649261Y-64577502D01*
X129649258Y-64577511D01*
X129590366Y-64797302D01*
X129590364Y-64797313D01*
X129570532Y-65023998D01*
X129570532Y-65024001D01*
X129590364Y-65250686D01*
X129590366Y-65250697D01*
X129649258Y-65470488D01*
X129649261Y-65470496D01*
X129718555Y-65619097D01*
X129729047Y-65688172D01*
X129700528Y-65751956D01*
X129642051Y-65790196D01*
X129606173Y-65795500D01*
X129215453Y-65795500D01*
X129148414Y-65775815D01*
X129127772Y-65759181D01*
X128807413Y-65438822D01*
X128773928Y-65377499D01*
X128775319Y-65319048D01*
X128793635Y-65250692D01*
X128813468Y-65024000D01*
X128793635Y-64797308D01*
X128746359Y-64620870D01*
X128734741Y-64577511D01*
X128734738Y-64577502D01*
X128638568Y-64371267D01*
X128638567Y-64371265D01*
X128596972Y-64311861D01*
X128508047Y-64184861D01*
X128508045Y-64184858D01*
X128347140Y-64023953D01*
X128186377Y-63911386D01*
X128142752Y-63856809D01*
X128133500Y-63809811D01*
X128133500Y-62590737D01*
X128135224Y-62575123D01*
X128134938Y-62575096D01*
X128135672Y-62567333D01*
X128133561Y-62500143D01*
X128133500Y-62496249D01*
X128133500Y-62468651D01*
X128133500Y-62468650D01*
X128132997Y-62464670D01*
X128132080Y-62453021D01*
X128131641Y-62439058D01*
X128130709Y-62409372D01*
X128125120Y-62390137D01*
X128121174Y-62371084D01*
X128118664Y-62351208D01*
X128102578Y-62310581D01*
X128098803Y-62299554D01*
X128086617Y-62257610D01*
X128084680Y-62254334D01*
X128076421Y-62240369D01*
X128067860Y-62222893D01*
X128060486Y-62204269D01*
X128060485Y-62204267D01*
X128047542Y-62186452D01*
X128034809Y-62168926D01*
X128028412Y-62159190D01*
X128006170Y-62121579D01*
X128006167Y-62121576D01*
X128006165Y-62121573D01*
X127992005Y-62107413D01*
X127979370Y-62092620D01*
X127967593Y-62076412D01*
X127933945Y-62048576D01*
X127925304Y-62040713D01*
X127500803Y-61616212D01*
X127490980Y-61603950D01*
X127490759Y-61604134D01*
X127485786Y-61598122D01*
X127436776Y-61552099D01*
X127433977Y-61549386D01*
X127414477Y-61529885D01*
X127414471Y-61529880D01*
X127411286Y-61527409D01*
X127402434Y-61519848D01*
X127370582Y-61489938D01*
X127370580Y-61489936D01*
X127370577Y-61489935D01*
X127353029Y-61480288D01*
X127336763Y-61469604D01*
X127320932Y-61457324D01*
X127280849Y-61439978D01*
X127270363Y-61434841D01*
X127232094Y-61413803D01*
X127232092Y-61413802D01*
X127212693Y-61408822D01*
X127194281Y-61402518D01*
X127175898Y-61394562D01*
X127175892Y-61394560D01*
X127132760Y-61387729D01*
X127121322Y-61385361D01*
X127079020Y-61374500D01*
X127079019Y-61374500D01*
X127058984Y-61374500D01*
X127039586Y-61372973D01*
X127032162Y-61371797D01*
X127019805Y-61369840D01*
X127019804Y-61369840D01*
X126976325Y-61373950D01*
X126964656Y-61374500D01*
X123624262Y-61374500D01*
X123601980Y-61372482D01*
X123596065Y-61371401D01*
X123559201Y-61368500D01*
X123559194Y-61368500D01*
X122252806Y-61368500D01*
X122252798Y-61368500D01*
X122215932Y-61371401D01*
X122215926Y-61371402D01*
X122058106Y-61417254D01*
X122058103Y-61417255D01*
X121916637Y-61500917D01*
X121916629Y-61500923D01*
X121800423Y-61617129D01*
X121800417Y-61617137D01*
X121716755Y-61758603D01*
X121716754Y-61758606D01*
X121670902Y-61916426D01*
X121670901Y-61916432D01*
X121668000Y-61953298D01*
X121668000Y-62194500D01*
X121648315Y-62261539D01*
X121595511Y-62307294D01*
X121544000Y-62318500D01*
X120377798Y-62318500D01*
X120340932Y-62321401D01*
X120340926Y-62321402D01*
X120183106Y-62367254D01*
X120183103Y-62367255D01*
X120041637Y-62450917D01*
X120041629Y-62450923D01*
X120035372Y-62457181D01*
X119974049Y-62490666D01*
X119947691Y-62493500D01*
X117938743Y-62493500D01*
X117923122Y-62491775D01*
X117923096Y-62492061D01*
X117915334Y-62491327D01*
X117915333Y-62491327D01*
X117853109Y-62493282D01*
X117848127Y-62493439D01*
X117844232Y-62493500D01*
X117816647Y-62493500D01*
X117812661Y-62494003D01*
X117801033Y-62494918D01*
X117757373Y-62496290D01*
X117738129Y-62501881D01*
X117719079Y-62505825D01*
X117699211Y-62508334D01*
X117699210Y-62508334D01*
X117658599Y-62524413D01*
X117647554Y-62528194D01*
X117605614Y-62540379D01*
X117605610Y-62540381D01*
X117588366Y-62550579D01*
X117570905Y-62559133D01*
X117552274Y-62566510D01*
X117552262Y-62566517D01*
X117516933Y-62592185D01*
X117507173Y-62598596D01*
X117469580Y-62620829D01*
X117455414Y-62634995D01*
X117440624Y-62647627D01*
X117424414Y-62659404D01*
X117424411Y-62659407D01*
X117396573Y-62693058D01*
X117388711Y-62701697D01*
X116238821Y-63851586D01*
X116177498Y-63885071D01*
X116119048Y-63883680D01*
X116050697Y-63865366D01*
X116050693Y-63865365D01*
X116050692Y-63865365D01*
X115937346Y-63855448D01*
X115824001Y-63845532D01*
X115823998Y-63845532D01*
X115597313Y-63865364D01*
X115597302Y-63865366D01*
X115377511Y-63924258D01*
X115377502Y-63924261D01*
X115171267Y-64020431D01*
X115171265Y-64020432D01*
X114984858Y-64150954D01*
X114823954Y-64311858D01*
X114693432Y-64498265D01*
X114693431Y-64498267D01*
X114597261Y-64704502D01*
X114597258Y-64704511D01*
X114538366Y-64924302D01*
X114538364Y-64924313D01*
X114518532Y-65150998D01*
X114518532Y-65151001D01*
X114538364Y-65377686D01*
X114538366Y-65377697D01*
X114597258Y-65597488D01*
X114597261Y-65597497D01*
X114693431Y-65803732D01*
X114693432Y-65803734D01*
X114823954Y-65990141D01*
X114925632Y-66091819D01*
X114959117Y-66153142D01*
X114954133Y-66222834D01*
X114912261Y-66278767D01*
X114846797Y-66303184D01*
X114837951Y-66303500D01*
X113381049Y-66303500D01*
X113314010Y-66283815D01*
X113268255Y-66231011D01*
X113258311Y-66161853D01*
X113287336Y-66098297D01*
X113293368Y-66091819D01*
X113395045Y-65990141D01*
X113395047Y-65990139D01*
X113525568Y-65803734D01*
X113621739Y-65597496D01*
X113680635Y-65377692D01*
X113700468Y-65151000D01*
X113680635Y-64924308D01*
X113621739Y-64704504D01*
X113525568Y-64498266D01*
X113395047Y-64311861D01*
X113395045Y-64311858D01*
X113234140Y-64150953D01*
X113073377Y-64038386D01*
X113029752Y-63983809D01*
X113020500Y-63936811D01*
X113020500Y-63683452D01*
X113040185Y-63616413D01*
X113056819Y-63595771D01*
X117824772Y-58827819D01*
X117886095Y-58794334D01*
X117912453Y-58791500D01*
X119947691Y-58791500D01*
X120014730Y-58811185D01*
X120035372Y-58827819D01*
X120041629Y-58834076D01*
X120041633Y-58834079D01*
X120041635Y-58834081D01*
X120183102Y-58917744D01*
X120211299Y-58925936D01*
X120340926Y-58963597D01*
X120340929Y-58963597D01*
X120340931Y-58963598D01*
X120377806Y-58966500D01*
X121544000Y-58966500D01*
X121611039Y-58986185D01*
X121656794Y-59038989D01*
X121668000Y-59090500D01*
X121668000Y-59331701D01*
X121670901Y-59368567D01*
X121670902Y-59368573D01*
X121716754Y-59526393D01*
X121716755Y-59526396D01*
X121800417Y-59667862D01*
X121800423Y-59667870D01*
X121916629Y-59784076D01*
X121916633Y-59784079D01*
X121916635Y-59784081D01*
X122058102Y-59867744D01*
X122070562Y-59871364D01*
X122215926Y-59913597D01*
X122215929Y-59913597D01*
X122215931Y-59913598D01*
X122252806Y-59916500D01*
X122252814Y-59916500D01*
X123559186Y-59916500D01*
X123559194Y-59916500D01*
X123596069Y-59913598D01*
X123596071Y-59913597D01*
X123596073Y-59913597D01*
X123637691Y-59901505D01*
X123753898Y-59867744D01*
X123895365Y-59784081D01*
X123895370Y-59784076D01*
X123901628Y-59777819D01*
X123962951Y-59744334D01*
X123989309Y-59741500D01*
X124467575Y-59741500D01*
X124534614Y-59761185D01*
X124540439Y-59765166D01*
X124624857Y-59826500D01*
X124642270Y-59839151D01*
X124815192Y-59916142D01*
X124815197Y-59916144D01*
X125000354Y-59955500D01*
X125000355Y-59955500D01*
X125189644Y-59955500D01*
X125189646Y-59955500D01*
X125374803Y-59916144D01*
X125547730Y-59839151D01*
X125700871Y-59727888D01*
X125827533Y-59587216D01*
X125922179Y-59423284D01*
X125980674Y-59243256D01*
X126000460Y-59055000D01*
X125980674Y-58866744D01*
X125922179Y-58686716D01*
X125827533Y-58522784D01*
X125700871Y-58382112D01*
X125700870Y-58382111D01*
X125547734Y-58270851D01*
X125547729Y-58270848D01*
X125374807Y-58193857D01*
X125374802Y-58193855D01*
X125229001Y-58162865D01*
X125189646Y-58154500D01*
X125000354Y-58154500D01*
X124967897Y-58161398D01*
X124815197Y-58193855D01*
X124815192Y-58193857D01*
X124642270Y-58270848D01*
X124642265Y-58270851D01*
X124489130Y-58382110D01*
X124489123Y-58382116D01*
X124428477Y-58449472D01*
X124368990Y-58486121D01*
X124336327Y-58490500D01*
X123989309Y-58490500D01*
X123922270Y-58470815D01*
X123901628Y-58454181D01*
X123895370Y-58447923D01*
X123895362Y-58447917D01*
X123784089Y-58382111D01*
X123753898Y-58364256D01*
X123753897Y-58364255D01*
X123753896Y-58364255D01*
X123753893Y-58364254D01*
X123596073Y-58318402D01*
X123596067Y-58318401D01*
X123559201Y-58315500D01*
X123559194Y-58315500D01*
X122393000Y-58315500D01*
X122325961Y-58295815D01*
X122280206Y-58243011D01*
X122269000Y-58191500D01*
X122269000Y-58140500D01*
X122288685Y-58073461D01*
X122341489Y-58027706D01*
X122393000Y-58016500D01*
X123559186Y-58016500D01*
X123559194Y-58016500D01*
X123596069Y-58013598D01*
X123596071Y-58013597D01*
X123596073Y-58013597D01*
X123637691Y-58001505D01*
X123753898Y-57967744D01*
X123895365Y-57884081D01*
X123895370Y-57884076D01*
X123901628Y-57877819D01*
X123962951Y-57844334D01*
X123989309Y-57841500D01*
X125905548Y-57841500D01*
X125972587Y-57861185D01*
G37*
%TD.AperFunction*%
%TA.AperFunction,NonConductor*%
G36*
X111643587Y-63510185D02*
G01*
X111664229Y-63526819D01*
X111733181Y-63595771D01*
X111766666Y-63657094D01*
X111769500Y-63683452D01*
X111769500Y-63936811D01*
X111749815Y-64003850D01*
X111716623Y-64038386D01*
X111555859Y-64150953D01*
X111394954Y-64311858D01*
X111264432Y-64498265D01*
X111264431Y-64498267D01*
X111168261Y-64704502D01*
X111168258Y-64704511D01*
X111109366Y-64924302D01*
X111109364Y-64924313D01*
X111089532Y-65150998D01*
X111089532Y-65151001D01*
X111109364Y-65377686D01*
X111109366Y-65377697D01*
X111168258Y-65597488D01*
X111168261Y-65597497D01*
X111264431Y-65803732D01*
X111264432Y-65803734D01*
X111394954Y-65990141D01*
X111496632Y-66091819D01*
X111530117Y-66153142D01*
X111525133Y-66222834D01*
X111483261Y-66278767D01*
X111417797Y-66303184D01*
X111408951Y-66303500D01*
X105873743Y-66303500D01*
X105858122Y-66301775D01*
X105858095Y-66302061D01*
X105850333Y-66301326D01*
X105783113Y-66303439D01*
X105779219Y-66303500D01*
X105751650Y-66303500D01*
X105747673Y-66304002D01*
X105736042Y-66304917D01*
X105692374Y-66306289D01*
X105692368Y-66306290D01*
X105673126Y-66311880D01*
X105654087Y-66315823D01*
X105634217Y-66318334D01*
X105634203Y-66318337D01*
X105593598Y-66334413D01*
X105582554Y-66338194D01*
X105540614Y-66350379D01*
X105540610Y-66350381D01*
X105523366Y-66360579D01*
X105505905Y-66369133D01*
X105487274Y-66376510D01*
X105487262Y-66376517D01*
X105451933Y-66402185D01*
X105442173Y-66408596D01*
X105404580Y-66430829D01*
X105390414Y-66444995D01*
X105375624Y-66457627D01*
X105359414Y-66469404D01*
X105359411Y-66469407D01*
X105331573Y-66503058D01*
X105323711Y-66511697D01*
X101594226Y-70241181D01*
X101532903Y-70274666D01*
X101506545Y-70277500D01*
X100194129Y-70277500D01*
X100194123Y-70277501D01*
X100134516Y-70283908D01*
X99999671Y-70334202D01*
X99999664Y-70334206D01*
X99884455Y-70420452D01*
X99884452Y-70420455D01*
X99798206Y-70535664D01*
X99798203Y-70535669D01*
X99749189Y-70667083D01*
X99707317Y-70723016D01*
X99641853Y-70747433D01*
X99573580Y-70732581D01*
X99545326Y-70711430D01*
X99423402Y-70589506D01*
X99423401Y-70589505D01*
X99290093Y-70496161D01*
X99230376Y-70454347D01*
X99186751Y-70399770D01*
X99177500Y-70352772D01*
X99177500Y-69271452D01*
X99197185Y-69204413D01*
X99213819Y-69183771D01*
X104870772Y-63526819D01*
X104932095Y-63493334D01*
X104958453Y-63490500D01*
X111576548Y-63490500D01*
X111643587Y-63510185D01*
G37*
%TD.AperFunction*%
M02*
