%TF.GenerationSoftware,KiCad,Pcbnew,7.0.10-7.0.10~ubuntu22.04.1*%
%TF.CreationDate,2024-08-03T23:28:18-07:00*%
%TF.ProjectId,cheating-calc,63686561-7469-46e6-972d-63616c632e6b,rev?*%
%TF.SameCoordinates,Original*%
%TF.FileFunction,Drillmap*%
%TF.FilePolarity,Positive*%
%FSLAX45Y45*%
G04 Gerber Fmt 4.5, Leading zero omitted, Abs format (unit mm)*
G04 Created by KiCad (PCBNEW 7.0.10-7.0.10~ubuntu22.04.1) date 2024-08-03 23:28:18*
%MOMM*%
%LPD*%
G01*
G04 APERTURE LIST*
%ADD10C,0.357380*%
%ADD11C,0.200000*%
G04 APERTURE END LIST*
D10*
X11034401Y-5207000D02*
X8534400Y-5207000D01*
X13234422Y-5207000D02*
X11034401Y-5207000D01*
X15734426Y-5207000D02*
X13234422Y-5207000D01*
X15734426Y-7407020D02*
X15734426Y-5207000D01*
X13234423Y-7407020D02*
X15734426Y-7407020D01*
X13234423Y-6807005D02*
X13234423Y-7407020D01*
X11034402Y-6807005D02*
X13234423Y-6807005D01*
X11034402Y-7407020D02*
X11034402Y-6807005D01*
X8534400Y-7407020D02*
X11034402Y-7407020D01*
X8534400Y-5207000D02*
X8534400Y-7407020D01*
D11*
X8777308Y-7736373D02*
X8777308Y-7536373D01*
X8777308Y-7536373D02*
X8824927Y-7536373D01*
X8824927Y-7536373D02*
X8853498Y-7545897D01*
X8853498Y-7545897D02*
X8872546Y-7564945D01*
X8872546Y-7564945D02*
X8882070Y-7583992D01*
X8882070Y-7583992D02*
X8891594Y-7622087D01*
X8891594Y-7622087D02*
X8891594Y-7650659D01*
X8891594Y-7650659D02*
X8882070Y-7688754D01*
X8882070Y-7688754D02*
X8872546Y-7707802D01*
X8872546Y-7707802D02*
X8853498Y-7726849D01*
X8853498Y-7726849D02*
X8824927Y-7736373D01*
X8824927Y-7736373D02*
X8777308Y-7736373D01*
X8977308Y-7736373D02*
X8977308Y-7603040D01*
X8977308Y-7641135D02*
X8986832Y-7622087D01*
X8986832Y-7622087D02*
X8996355Y-7612564D01*
X8996355Y-7612564D02*
X9015403Y-7603040D01*
X9015403Y-7603040D02*
X9034451Y-7603040D01*
X9101117Y-7736373D02*
X9101117Y-7603040D01*
X9101117Y-7536373D02*
X9091594Y-7545897D01*
X9091594Y-7545897D02*
X9101117Y-7555421D01*
X9101117Y-7555421D02*
X9110641Y-7545897D01*
X9110641Y-7545897D02*
X9101117Y-7536373D01*
X9101117Y-7536373D02*
X9101117Y-7555421D01*
X9224927Y-7736373D02*
X9205879Y-7726849D01*
X9205879Y-7726849D02*
X9196355Y-7707802D01*
X9196355Y-7707802D02*
X9196355Y-7536373D01*
X9329689Y-7736373D02*
X9310641Y-7726849D01*
X9310641Y-7726849D02*
X9301117Y-7707802D01*
X9301117Y-7707802D02*
X9301117Y-7536373D01*
X9558260Y-7736373D02*
X9558260Y-7536373D01*
X9558260Y-7536373D02*
X9624927Y-7679230D01*
X9624927Y-7679230D02*
X9691594Y-7536373D01*
X9691594Y-7536373D02*
X9691594Y-7736373D01*
X9872546Y-7736373D02*
X9872546Y-7631611D01*
X9872546Y-7631611D02*
X9863022Y-7612564D01*
X9863022Y-7612564D02*
X9843975Y-7603040D01*
X9843975Y-7603040D02*
X9805879Y-7603040D01*
X9805879Y-7603040D02*
X9786832Y-7612564D01*
X9872546Y-7726849D02*
X9853498Y-7736373D01*
X9853498Y-7736373D02*
X9805879Y-7736373D01*
X9805879Y-7736373D02*
X9786832Y-7726849D01*
X9786832Y-7726849D02*
X9777308Y-7707802D01*
X9777308Y-7707802D02*
X9777308Y-7688754D01*
X9777308Y-7688754D02*
X9786832Y-7669706D01*
X9786832Y-7669706D02*
X9805879Y-7660183D01*
X9805879Y-7660183D02*
X9853498Y-7660183D01*
X9853498Y-7660183D02*
X9872546Y-7650659D01*
X9967784Y-7603040D02*
X9967784Y-7803040D01*
X9967784Y-7612564D02*
X9986832Y-7603040D01*
X9986832Y-7603040D02*
X10024927Y-7603040D01*
X10024927Y-7603040D02*
X10043975Y-7612564D01*
X10043975Y-7612564D02*
X10053498Y-7622087D01*
X10053498Y-7622087D02*
X10063022Y-7641135D01*
X10063022Y-7641135D02*
X10063022Y-7698278D01*
X10063022Y-7698278D02*
X10053498Y-7717325D01*
X10053498Y-7717325D02*
X10043975Y-7726849D01*
X10043975Y-7726849D02*
X10024927Y-7736373D01*
X10024927Y-7736373D02*
X9986832Y-7736373D01*
X9986832Y-7736373D02*
X9967784Y-7726849D01*
X10148736Y-7717325D02*
X10158260Y-7726849D01*
X10158260Y-7726849D02*
X10148736Y-7736373D01*
X10148736Y-7736373D02*
X10139213Y-7726849D01*
X10139213Y-7726849D02*
X10148736Y-7717325D01*
X10148736Y-7717325D02*
X10148736Y-7736373D01*
X10148736Y-7612564D02*
X10158260Y-7622087D01*
X10158260Y-7622087D02*
X10148736Y-7631611D01*
X10148736Y-7631611D02*
X10139213Y-7622087D01*
X10139213Y-7622087D02*
X10148736Y-7612564D01*
X10148736Y-7612564D02*
X10148736Y-7631611D01*
M02*
