%TF.GenerationSoftware,KiCad,Pcbnew,7.0.10-7.0.10~ubuntu22.04.1*%
%TF.CreationDate,2024-08-03T23:28:18-07:00*%
%TF.ProjectId,cheating-calc,63686561-7469-46e6-972d-63616c632e6b,rev?*%
%TF.SameCoordinates,Original*%
%TF.FileFunction,Drillmap*%
%TF.FilePolarity,Positive*%
%FSLAX45Y45*%
G04 Gerber Fmt 4.5, Leading zero omitted, Abs format (unit mm)*
G04 Created by KiCad (PCBNEW 7.0.10-7.0.10~ubuntu22.04.1) date 2024-08-03 23:28:18*
%MOMM*%
%LPD*%
G01*
G04 APERTURE LIST*
%ADD10C,0.357380*%
%ADD11C,0.200000*%
%ADD12C,0.100000*%
G04 APERTURE END LIST*
D10*
X11034401Y-5207000D02*
X8534400Y-5207000D01*
X13234422Y-5207000D02*
X11034401Y-5207000D01*
X15734426Y-5207000D02*
X13234422Y-5207000D01*
X15734426Y-7407020D02*
X15734426Y-5207000D01*
X13234423Y-7407020D02*
X15734426Y-7407020D01*
X13234423Y-6807005D02*
X13234423Y-7407020D01*
X11034402Y-6807005D02*
X13234423Y-6807005D01*
X11034402Y-7407020D02*
X11034402Y-6807005D01*
X8534400Y-7407020D02*
X11034402Y-7407020D01*
X8534400Y-5207000D02*
X8534400Y-7407020D01*
D11*
D12*
X12489500Y-5885500D02*
X12529500Y-5925500D01*
X12529500Y-5885500D02*
X12489500Y-5925500D01*
X12489500Y-6393500D02*
X12529500Y-6433500D01*
X12529500Y-6393500D02*
X12489500Y-6433500D01*
X14712000Y-6799900D02*
X14752000Y-6839900D01*
X14752000Y-6799900D02*
X14712000Y-6839900D01*
X15181900Y-6799900D02*
X15221900Y-6839900D01*
X15221900Y-6799900D02*
X15181900Y-6839900D01*
X11279500Y-5499100D02*
G75*
G03*
X11199500Y-5499100I-40000J0D01*
G01*
X11199500Y-5499100D02*
G75*
G03*
X11279500Y-5499100I40000J0D01*
G01*
X11279500Y-6515100D02*
G75*
G03*
X11199500Y-6515100I-40000J0D01*
G01*
X11199500Y-6515100D02*
G75*
G03*
X11279500Y-6515100I40000J0D01*
G01*
X11622400Y-5499100D02*
G75*
G03*
X11542400Y-5499100I-40000J0D01*
G01*
X11542400Y-5499100D02*
G75*
G03*
X11622400Y-5499100I40000J0D01*
G01*
X11622400Y-6515100D02*
G75*
G03*
X11542400Y-6515100I-40000J0D01*
G01*
X11542400Y-6515100D02*
G75*
G03*
X11622400Y-6515100I40000J0D01*
G01*
X12790800Y-5486400D02*
G75*
G03*
X12710800Y-5486400I-40000J0D01*
G01*
X12710800Y-5486400D02*
G75*
G03*
X12790800Y-5486400I40000J0D01*
G01*
X12790800Y-6502400D02*
G75*
G03*
X12710800Y-6502400I-40000J0D01*
G01*
X12710800Y-6502400D02*
G75*
G03*
X12790800Y-6502400I40000J0D01*
G01*
X13127600Y-5486400D02*
G75*
G03*
X13047600Y-5486400I-40000J0D01*
G01*
X13047600Y-5486400D02*
G75*
G03*
X13127600Y-5486400I40000J0D01*
G01*
X13127600Y-6502400D02*
G75*
G03*
X13047600Y-6502400I-40000J0D01*
G01*
X13047600Y-6502400D02*
G75*
G03*
X13127600Y-6502400I40000J0D01*
G01*
X9347200Y-7112800D02*
X9347200Y-7212800D01*
X9297200Y-7162800D02*
X9397200Y-7162800D01*
X9601200Y-7112800D02*
X9601200Y-7212800D01*
X9551200Y-7162800D02*
X9651200Y-7162800D01*
X9855200Y-7112800D02*
X9855200Y-7212800D01*
X9805200Y-7162800D02*
X9905200Y-7162800D01*
X10109200Y-7112800D02*
X10109200Y-7212800D01*
X10059200Y-7162800D02*
X10159200Y-7162800D01*
D11*
X8777308Y-7736373D02*
X8777308Y-7536373D01*
X8777308Y-7536373D02*
X8824927Y-7536373D01*
X8824927Y-7536373D02*
X8853498Y-7545897D01*
X8853498Y-7545897D02*
X8872546Y-7564945D01*
X8872546Y-7564945D02*
X8882070Y-7583992D01*
X8882070Y-7583992D02*
X8891594Y-7622087D01*
X8891594Y-7622087D02*
X8891594Y-7650659D01*
X8891594Y-7650659D02*
X8882070Y-7688754D01*
X8882070Y-7688754D02*
X8872546Y-7707802D01*
X8872546Y-7707802D02*
X8853498Y-7726849D01*
X8853498Y-7726849D02*
X8824927Y-7736373D01*
X8824927Y-7736373D02*
X8777308Y-7736373D01*
X8977308Y-7736373D02*
X8977308Y-7603040D01*
X8977308Y-7641135D02*
X8986832Y-7622087D01*
X8986832Y-7622087D02*
X8996355Y-7612564D01*
X8996355Y-7612564D02*
X9015403Y-7603040D01*
X9015403Y-7603040D02*
X9034451Y-7603040D01*
X9101117Y-7736373D02*
X9101117Y-7603040D01*
X9101117Y-7536373D02*
X9091594Y-7545897D01*
X9091594Y-7545897D02*
X9101117Y-7555421D01*
X9101117Y-7555421D02*
X9110641Y-7545897D01*
X9110641Y-7545897D02*
X9101117Y-7536373D01*
X9101117Y-7536373D02*
X9101117Y-7555421D01*
X9224927Y-7736373D02*
X9205879Y-7726849D01*
X9205879Y-7726849D02*
X9196355Y-7707802D01*
X9196355Y-7707802D02*
X9196355Y-7536373D01*
X9329689Y-7736373D02*
X9310641Y-7726849D01*
X9310641Y-7726849D02*
X9301117Y-7707802D01*
X9301117Y-7707802D02*
X9301117Y-7536373D01*
X9558260Y-7736373D02*
X9558260Y-7536373D01*
X9558260Y-7536373D02*
X9624927Y-7679230D01*
X9624927Y-7679230D02*
X9691594Y-7536373D01*
X9691594Y-7536373D02*
X9691594Y-7736373D01*
X9872546Y-7736373D02*
X9872546Y-7631611D01*
X9872546Y-7631611D02*
X9863022Y-7612564D01*
X9863022Y-7612564D02*
X9843975Y-7603040D01*
X9843975Y-7603040D02*
X9805879Y-7603040D01*
X9805879Y-7603040D02*
X9786832Y-7612564D01*
X9872546Y-7726849D02*
X9853498Y-7736373D01*
X9853498Y-7736373D02*
X9805879Y-7736373D01*
X9805879Y-7736373D02*
X9786832Y-7726849D01*
X9786832Y-7726849D02*
X9777308Y-7707802D01*
X9777308Y-7707802D02*
X9777308Y-7688754D01*
X9777308Y-7688754D02*
X9786832Y-7669706D01*
X9786832Y-7669706D02*
X9805879Y-7660183D01*
X9805879Y-7660183D02*
X9853498Y-7660183D01*
X9853498Y-7660183D02*
X9872546Y-7650659D01*
X9967784Y-7603040D02*
X9967784Y-7803040D01*
X9967784Y-7612564D02*
X9986832Y-7603040D01*
X9986832Y-7603040D02*
X10024927Y-7603040D01*
X10024927Y-7603040D02*
X10043975Y-7612564D01*
X10043975Y-7612564D02*
X10053498Y-7622087D01*
X10053498Y-7622087D02*
X10063022Y-7641135D01*
X10063022Y-7641135D02*
X10063022Y-7698278D01*
X10063022Y-7698278D02*
X10053498Y-7717325D01*
X10053498Y-7717325D02*
X10043975Y-7726849D01*
X10043975Y-7726849D02*
X10024927Y-7736373D01*
X10024927Y-7736373D02*
X9986832Y-7736373D01*
X9986832Y-7736373D02*
X9967784Y-7726849D01*
X10148736Y-7717325D02*
X10158260Y-7726849D01*
X10158260Y-7726849D02*
X10148736Y-7736373D01*
X10148736Y-7736373D02*
X10139213Y-7726849D01*
X10139213Y-7726849D02*
X10148736Y-7717325D01*
X10148736Y-7717325D02*
X10148736Y-7736373D01*
X10148736Y-7612564D02*
X10158260Y-7622087D01*
X10158260Y-7622087D02*
X10148736Y-7631611D01*
X10148736Y-7631611D02*
X10139213Y-7622087D01*
X10139213Y-7622087D02*
X10148736Y-7612564D01*
X10148736Y-7612564D02*
X10148736Y-7631611D01*
D12*
X8476531Y-8044889D02*
X8516531Y-8084889D01*
X8516531Y-8044889D02*
X8476531Y-8084889D01*
D11*
X8815403Y-7956373D02*
X8834451Y-7956373D01*
X8834451Y-7956373D02*
X8853498Y-7965897D01*
X8853498Y-7965897D02*
X8863022Y-7975421D01*
X8863022Y-7975421D02*
X8872546Y-7994468D01*
X8872546Y-7994468D02*
X8882070Y-8032564D01*
X8882070Y-8032564D02*
X8882070Y-8080183D01*
X8882070Y-8080183D02*
X8872546Y-8118278D01*
X8872546Y-8118278D02*
X8863022Y-8137325D01*
X8863022Y-8137325D02*
X8853498Y-8146849D01*
X8853498Y-8146849D02*
X8834451Y-8156373D01*
X8834451Y-8156373D02*
X8815403Y-8156373D01*
X8815403Y-8156373D02*
X8796355Y-8146849D01*
X8796355Y-8146849D02*
X8786832Y-8137325D01*
X8786832Y-8137325D02*
X8777308Y-8118278D01*
X8777308Y-8118278D02*
X8767784Y-8080183D01*
X8767784Y-8080183D02*
X8767784Y-8032564D01*
X8767784Y-8032564D02*
X8777308Y-7994468D01*
X8777308Y-7994468D02*
X8786832Y-7975421D01*
X8786832Y-7975421D02*
X8796355Y-7965897D01*
X8796355Y-7965897D02*
X8815403Y-7956373D01*
X8967784Y-8137325D02*
X8977308Y-8146849D01*
X8977308Y-8146849D02*
X8967784Y-8156373D01*
X8967784Y-8156373D02*
X8958260Y-8146849D01*
X8958260Y-8146849D02*
X8967784Y-8137325D01*
X8967784Y-8137325D02*
X8967784Y-8156373D01*
X9148736Y-8023040D02*
X9148736Y-8156373D01*
X9101117Y-7946849D02*
X9053498Y-8089706D01*
X9053498Y-8089706D02*
X9177308Y-8089706D01*
X9291594Y-7956373D02*
X9310641Y-7956373D01*
X9310641Y-7956373D02*
X9329689Y-7965897D01*
X9329689Y-7965897D02*
X9339213Y-7975421D01*
X9339213Y-7975421D02*
X9348736Y-7994468D01*
X9348736Y-7994468D02*
X9358260Y-8032564D01*
X9358260Y-8032564D02*
X9358260Y-8080183D01*
X9358260Y-8080183D02*
X9348736Y-8118278D01*
X9348736Y-8118278D02*
X9339213Y-8137325D01*
X9339213Y-8137325D02*
X9329689Y-8146849D01*
X9329689Y-8146849D02*
X9310641Y-8156373D01*
X9310641Y-8156373D02*
X9291594Y-8156373D01*
X9291594Y-8156373D02*
X9272546Y-8146849D01*
X9272546Y-8146849D02*
X9263022Y-8137325D01*
X9263022Y-8137325D02*
X9253498Y-8118278D01*
X9253498Y-8118278D02*
X9243975Y-8080183D01*
X9243975Y-8080183D02*
X9243975Y-8032564D01*
X9243975Y-8032564D02*
X9253498Y-7994468D01*
X9253498Y-7994468D02*
X9263022Y-7975421D01*
X9263022Y-7975421D02*
X9272546Y-7965897D01*
X9272546Y-7965897D02*
X9291594Y-7956373D01*
X9482070Y-7956373D02*
X9501117Y-7956373D01*
X9501117Y-7956373D02*
X9520165Y-7965897D01*
X9520165Y-7965897D02*
X9529689Y-7975421D01*
X9529689Y-7975421D02*
X9539213Y-7994468D01*
X9539213Y-7994468D02*
X9548736Y-8032564D01*
X9548736Y-8032564D02*
X9548736Y-8080183D01*
X9548736Y-8080183D02*
X9539213Y-8118278D01*
X9539213Y-8118278D02*
X9529689Y-8137325D01*
X9529689Y-8137325D02*
X9520165Y-8146849D01*
X9520165Y-8146849D02*
X9501117Y-8156373D01*
X9501117Y-8156373D02*
X9482070Y-8156373D01*
X9482070Y-8156373D02*
X9463022Y-8146849D01*
X9463022Y-8146849D02*
X9453498Y-8137325D01*
X9453498Y-8137325D02*
X9443975Y-8118278D01*
X9443975Y-8118278D02*
X9434451Y-8080183D01*
X9434451Y-8080183D02*
X9434451Y-8032564D01*
X9434451Y-8032564D02*
X9443975Y-7994468D01*
X9443975Y-7994468D02*
X9453498Y-7975421D01*
X9453498Y-7975421D02*
X9463022Y-7965897D01*
X9463022Y-7965897D02*
X9482070Y-7956373D01*
X9634451Y-8156373D02*
X9634451Y-8023040D01*
X9634451Y-8042087D02*
X9643975Y-8032564D01*
X9643975Y-8032564D02*
X9663022Y-8023040D01*
X9663022Y-8023040D02*
X9691594Y-8023040D01*
X9691594Y-8023040D02*
X9710641Y-8032564D01*
X9710641Y-8032564D02*
X9720165Y-8051611D01*
X9720165Y-8051611D02*
X9720165Y-8156373D01*
X9720165Y-8051611D02*
X9729689Y-8032564D01*
X9729689Y-8032564D02*
X9748736Y-8023040D01*
X9748736Y-8023040D02*
X9777308Y-8023040D01*
X9777308Y-8023040D02*
X9796356Y-8032564D01*
X9796356Y-8032564D02*
X9805879Y-8051611D01*
X9805879Y-8051611D02*
X9805879Y-8156373D01*
X9901117Y-8156373D02*
X9901117Y-8023040D01*
X9901117Y-8042087D02*
X9910641Y-8032564D01*
X9910641Y-8032564D02*
X9929689Y-8023040D01*
X9929689Y-8023040D02*
X9958260Y-8023040D01*
X9958260Y-8023040D02*
X9977308Y-8032564D01*
X9977308Y-8032564D02*
X9986832Y-8051611D01*
X9986832Y-8051611D02*
X9986832Y-8156373D01*
X9986832Y-8051611D02*
X9996356Y-8032564D01*
X9996356Y-8032564D02*
X10015403Y-8023040D01*
X10015403Y-8023040D02*
X10043975Y-8023040D01*
X10043975Y-8023040D02*
X10063022Y-8032564D01*
X10063022Y-8032564D02*
X10072546Y-8051611D01*
X10072546Y-8051611D02*
X10072546Y-8156373D01*
X10463022Y-7946849D02*
X10291594Y-8203992D01*
X10720165Y-7956373D02*
X10739213Y-7956373D01*
X10739213Y-7956373D02*
X10758260Y-7965897D01*
X10758260Y-7965897D02*
X10767784Y-7975421D01*
X10767784Y-7975421D02*
X10777308Y-7994468D01*
X10777308Y-7994468D02*
X10786832Y-8032564D01*
X10786832Y-8032564D02*
X10786832Y-8080183D01*
X10786832Y-8080183D02*
X10777308Y-8118278D01*
X10777308Y-8118278D02*
X10767784Y-8137325D01*
X10767784Y-8137325D02*
X10758260Y-8146849D01*
X10758260Y-8146849D02*
X10739213Y-8156373D01*
X10739213Y-8156373D02*
X10720165Y-8156373D01*
X10720165Y-8156373D02*
X10701118Y-8146849D01*
X10701118Y-8146849D02*
X10691594Y-8137325D01*
X10691594Y-8137325D02*
X10682070Y-8118278D01*
X10682070Y-8118278D02*
X10672546Y-8080183D01*
X10672546Y-8080183D02*
X10672546Y-8032564D01*
X10672546Y-8032564D02*
X10682070Y-7994468D01*
X10682070Y-7994468D02*
X10691594Y-7975421D01*
X10691594Y-7975421D02*
X10701118Y-7965897D01*
X10701118Y-7965897D02*
X10720165Y-7956373D01*
X10872546Y-8137325D02*
X10882070Y-8146849D01*
X10882070Y-8146849D02*
X10872546Y-8156373D01*
X10872546Y-8156373D02*
X10863022Y-8146849D01*
X10863022Y-8146849D02*
X10872546Y-8137325D01*
X10872546Y-8137325D02*
X10872546Y-8156373D01*
X11005879Y-7956373D02*
X11024927Y-7956373D01*
X11024927Y-7956373D02*
X11043975Y-7965897D01*
X11043975Y-7965897D02*
X11053499Y-7975421D01*
X11053499Y-7975421D02*
X11063022Y-7994468D01*
X11063022Y-7994468D02*
X11072546Y-8032564D01*
X11072546Y-8032564D02*
X11072546Y-8080183D01*
X11072546Y-8080183D02*
X11063022Y-8118278D01*
X11063022Y-8118278D02*
X11053499Y-8137325D01*
X11053499Y-8137325D02*
X11043975Y-8146849D01*
X11043975Y-8146849D02*
X11024927Y-8156373D01*
X11024927Y-8156373D02*
X11005879Y-8156373D01*
X11005879Y-8156373D02*
X10986832Y-8146849D01*
X10986832Y-8146849D02*
X10977308Y-8137325D01*
X10977308Y-8137325D02*
X10967784Y-8118278D01*
X10967784Y-8118278D02*
X10958260Y-8080183D01*
X10958260Y-8080183D02*
X10958260Y-8032564D01*
X10958260Y-8032564D02*
X10967784Y-7994468D01*
X10967784Y-7994468D02*
X10977308Y-7975421D01*
X10977308Y-7975421D02*
X10986832Y-7965897D01*
X10986832Y-7965897D02*
X11005879Y-7956373D01*
X11263022Y-8156373D02*
X11148737Y-8156373D01*
X11205879Y-8156373D02*
X11205879Y-7956373D01*
X11205879Y-7956373D02*
X11186832Y-7984945D01*
X11186832Y-7984945D02*
X11167784Y-8003992D01*
X11167784Y-8003992D02*
X11148737Y-8013516D01*
X11443975Y-7956373D02*
X11348737Y-7956373D01*
X11348737Y-7956373D02*
X11339213Y-8051611D01*
X11339213Y-8051611D02*
X11348737Y-8042087D01*
X11348737Y-8042087D02*
X11367784Y-8032564D01*
X11367784Y-8032564D02*
X11415403Y-8032564D01*
X11415403Y-8032564D02*
X11434451Y-8042087D01*
X11434451Y-8042087D02*
X11443975Y-8051611D01*
X11443975Y-8051611D02*
X11453498Y-8070659D01*
X11453498Y-8070659D02*
X11453498Y-8118278D01*
X11453498Y-8118278D02*
X11443975Y-8137325D01*
X11443975Y-8137325D02*
X11434451Y-8146849D01*
X11434451Y-8146849D02*
X11415403Y-8156373D01*
X11415403Y-8156373D02*
X11367784Y-8156373D01*
X11367784Y-8156373D02*
X11348737Y-8146849D01*
X11348737Y-8146849D02*
X11339213Y-8137325D01*
X11520165Y-7956373D02*
X11653498Y-7956373D01*
X11653498Y-7956373D02*
X11567784Y-8156373D01*
X11720165Y-7956373D02*
X11720165Y-7994468D01*
X11796356Y-7956373D02*
X11796356Y-7994468D01*
X12091594Y-8232564D02*
X12082070Y-8223040D01*
X12082070Y-8223040D02*
X12063022Y-8194468D01*
X12063022Y-8194468D02*
X12053499Y-8175421D01*
X12053499Y-8175421D02*
X12043975Y-8146849D01*
X12043975Y-8146849D02*
X12034451Y-8099230D01*
X12034451Y-8099230D02*
X12034451Y-8061135D01*
X12034451Y-8061135D02*
X12043975Y-8013516D01*
X12043975Y-8013516D02*
X12053499Y-7984945D01*
X12053499Y-7984945D02*
X12063022Y-7965897D01*
X12063022Y-7965897D02*
X12082070Y-7937325D01*
X12082070Y-7937325D02*
X12091594Y-7927802D01*
X12253499Y-8023040D02*
X12253499Y-8156373D01*
X12205879Y-7946849D02*
X12158260Y-8089706D01*
X12158260Y-8089706D02*
X12282070Y-8089706D01*
X12510641Y-8156373D02*
X12510641Y-7956373D01*
X12596356Y-8156373D02*
X12596356Y-8051611D01*
X12596356Y-8051611D02*
X12586832Y-8032564D01*
X12586832Y-8032564D02*
X12567784Y-8023040D01*
X12567784Y-8023040D02*
X12539213Y-8023040D01*
X12539213Y-8023040D02*
X12520165Y-8032564D01*
X12520165Y-8032564D02*
X12510641Y-8042087D01*
X12720165Y-8156373D02*
X12701118Y-8146849D01*
X12701118Y-8146849D02*
X12691594Y-8137325D01*
X12691594Y-8137325D02*
X12682070Y-8118278D01*
X12682070Y-8118278D02*
X12682070Y-8061135D01*
X12682070Y-8061135D02*
X12691594Y-8042087D01*
X12691594Y-8042087D02*
X12701118Y-8032564D01*
X12701118Y-8032564D02*
X12720165Y-8023040D01*
X12720165Y-8023040D02*
X12748737Y-8023040D01*
X12748737Y-8023040D02*
X12767784Y-8032564D01*
X12767784Y-8032564D02*
X12777308Y-8042087D01*
X12777308Y-8042087D02*
X12786832Y-8061135D01*
X12786832Y-8061135D02*
X12786832Y-8118278D01*
X12786832Y-8118278D02*
X12777308Y-8137325D01*
X12777308Y-8137325D02*
X12767784Y-8146849D01*
X12767784Y-8146849D02*
X12748737Y-8156373D01*
X12748737Y-8156373D02*
X12720165Y-8156373D01*
X12901118Y-8156373D02*
X12882070Y-8146849D01*
X12882070Y-8146849D02*
X12872546Y-8127802D01*
X12872546Y-8127802D02*
X12872546Y-7956373D01*
X13053499Y-8146849D02*
X13034451Y-8156373D01*
X13034451Y-8156373D02*
X12996356Y-8156373D01*
X12996356Y-8156373D02*
X12977308Y-8146849D01*
X12977308Y-8146849D02*
X12967784Y-8127802D01*
X12967784Y-8127802D02*
X12967784Y-8051611D01*
X12967784Y-8051611D02*
X12977308Y-8032564D01*
X12977308Y-8032564D02*
X12996356Y-8023040D01*
X12996356Y-8023040D02*
X13034451Y-8023040D01*
X13034451Y-8023040D02*
X13053499Y-8032564D01*
X13053499Y-8032564D02*
X13063022Y-8051611D01*
X13063022Y-8051611D02*
X13063022Y-8070659D01*
X13063022Y-8070659D02*
X12967784Y-8089706D01*
X13139213Y-8146849D02*
X13158261Y-8156373D01*
X13158261Y-8156373D02*
X13196356Y-8156373D01*
X13196356Y-8156373D02*
X13215403Y-8146849D01*
X13215403Y-8146849D02*
X13224927Y-8127802D01*
X13224927Y-8127802D02*
X13224927Y-8118278D01*
X13224927Y-8118278D02*
X13215403Y-8099230D01*
X13215403Y-8099230D02*
X13196356Y-8089706D01*
X13196356Y-8089706D02*
X13167784Y-8089706D01*
X13167784Y-8089706D02*
X13148737Y-8080183D01*
X13148737Y-8080183D02*
X13139213Y-8061135D01*
X13139213Y-8061135D02*
X13139213Y-8051611D01*
X13139213Y-8051611D02*
X13148737Y-8032564D01*
X13148737Y-8032564D02*
X13167784Y-8023040D01*
X13167784Y-8023040D02*
X13196356Y-8023040D01*
X13196356Y-8023040D02*
X13215403Y-8032564D01*
X13291594Y-8232564D02*
X13301118Y-8223040D01*
X13301118Y-8223040D02*
X13320165Y-8194468D01*
X13320165Y-8194468D02*
X13329689Y-8175421D01*
X13329689Y-8175421D02*
X13339213Y-8146849D01*
X13339213Y-8146849D02*
X13348737Y-8099230D01*
X13348737Y-8099230D02*
X13348737Y-8061135D01*
X13348737Y-8061135D02*
X13339213Y-8013516D01*
X13339213Y-8013516D02*
X13329689Y-7984945D01*
X13329689Y-7984945D02*
X13320165Y-7965897D01*
X13320165Y-7965897D02*
X13301118Y-7937325D01*
X13301118Y-7937325D02*
X13291594Y-7927802D01*
D12*
X8516531Y-8328889D02*
G75*
G03*
X8436531Y-8328889I-40000J0D01*
G01*
X8436531Y-8328889D02*
G75*
G03*
X8516531Y-8328889I40000J0D01*
G01*
D11*
X8815403Y-8220373D02*
X8834451Y-8220373D01*
X8834451Y-8220373D02*
X8853498Y-8229897D01*
X8853498Y-8229897D02*
X8863022Y-8239421D01*
X8863022Y-8239421D02*
X8872546Y-8258468D01*
X8872546Y-8258468D02*
X8882070Y-8296564D01*
X8882070Y-8296564D02*
X8882070Y-8344183D01*
X8882070Y-8344183D02*
X8872546Y-8382278D01*
X8872546Y-8382278D02*
X8863022Y-8401326D01*
X8863022Y-8401326D02*
X8853498Y-8410849D01*
X8853498Y-8410849D02*
X8834451Y-8420373D01*
X8834451Y-8420373D02*
X8815403Y-8420373D01*
X8815403Y-8420373D02*
X8796355Y-8410849D01*
X8796355Y-8410849D02*
X8786832Y-8401326D01*
X8786832Y-8401326D02*
X8777308Y-8382278D01*
X8777308Y-8382278D02*
X8767784Y-8344183D01*
X8767784Y-8344183D02*
X8767784Y-8296564D01*
X8767784Y-8296564D02*
X8777308Y-8258468D01*
X8777308Y-8258468D02*
X8786832Y-8239421D01*
X8786832Y-8239421D02*
X8796355Y-8229897D01*
X8796355Y-8229897D02*
X8815403Y-8220373D01*
X8967784Y-8401326D02*
X8977308Y-8410849D01*
X8977308Y-8410849D02*
X8967784Y-8420373D01*
X8967784Y-8420373D02*
X8958260Y-8410849D01*
X8958260Y-8410849D02*
X8967784Y-8401326D01*
X8967784Y-8401326D02*
X8967784Y-8420373D01*
X9091594Y-8306087D02*
X9072546Y-8296564D01*
X9072546Y-8296564D02*
X9063022Y-8287040D01*
X9063022Y-8287040D02*
X9053498Y-8267992D01*
X9053498Y-8267992D02*
X9053498Y-8258468D01*
X9053498Y-8258468D02*
X9063022Y-8239421D01*
X9063022Y-8239421D02*
X9072546Y-8229897D01*
X9072546Y-8229897D02*
X9091594Y-8220373D01*
X9091594Y-8220373D02*
X9129689Y-8220373D01*
X9129689Y-8220373D02*
X9148736Y-8229897D01*
X9148736Y-8229897D02*
X9158260Y-8239421D01*
X9158260Y-8239421D02*
X9167784Y-8258468D01*
X9167784Y-8258468D02*
X9167784Y-8267992D01*
X9167784Y-8267992D02*
X9158260Y-8287040D01*
X9158260Y-8287040D02*
X9148736Y-8296564D01*
X9148736Y-8296564D02*
X9129689Y-8306087D01*
X9129689Y-8306087D02*
X9091594Y-8306087D01*
X9091594Y-8306087D02*
X9072546Y-8315611D01*
X9072546Y-8315611D02*
X9063022Y-8325135D01*
X9063022Y-8325135D02*
X9053498Y-8344183D01*
X9053498Y-8344183D02*
X9053498Y-8382278D01*
X9053498Y-8382278D02*
X9063022Y-8401326D01*
X9063022Y-8401326D02*
X9072546Y-8410849D01*
X9072546Y-8410849D02*
X9091594Y-8420373D01*
X9091594Y-8420373D02*
X9129689Y-8420373D01*
X9129689Y-8420373D02*
X9148736Y-8410849D01*
X9148736Y-8410849D02*
X9158260Y-8401326D01*
X9158260Y-8401326D02*
X9167784Y-8382278D01*
X9167784Y-8382278D02*
X9167784Y-8344183D01*
X9167784Y-8344183D02*
X9158260Y-8325135D01*
X9158260Y-8325135D02*
X9148736Y-8315611D01*
X9148736Y-8315611D02*
X9129689Y-8306087D01*
X9291594Y-8220373D02*
X9310641Y-8220373D01*
X9310641Y-8220373D02*
X9329689Y-8229897D01*
X9329689Y-8229897D02*
X9339213Y-8239421D01*
X9339213Y-8239421D02*
X9348736Y-8258468D01*
X9348736Y-8258468D02*
X9358260Y-8296564D01*
X9358260Y-8296564D02*
X9358260Y-8344183D01*
X9358260Y-8344183D02*
X9348736Y-8382278D01*
X9348736Y-8382278D02*
X9339213Y-8401326D01*
X9339213Y-8401326D02*
X9329689Y-8410849D01*
X9329689Y-8410849D02*
X9310641Y-8420373D01*
X9310641Y-8420373D02*
X9291594Y-8420373D01*
X9291594Y-8420373D02*
X9272546Y-8410849D01*
X9272546Y-8410849D02*
X9263022Y-8401326D01*
X9263022Y-8401326D02*
X9253498Y-8382278D01*
X9253498Y-8382278D02*
X9243975Y-8344183D01*
X9243975Y-8344183D02*
X9243975Y-8296564D01*
X9243975Y-8296564D02*
X9253498Y-8258468D01*
X9253498Y-8258468D02*
X9263022Y-8239421D01*
X9263022Y-8239421D02*
X9272546Y-8229897D01*
X9272546Y-8229897D02*
X9291594Y-8220373D01*
X9482070Y-8220373D02*
X9501117Y-8220373D01*
X9501117Y-8220373D02*
X9520165Y-8229897D01*
X9520165Y-8229897D02*
X9529689Y-8239421D01*
X9529689Y-8239421D02*
X9539213Y-8258468D01*
X9539213Y-8258468D02*
X9548736Y-8296564D01*
X9548736Y-8296564D02*
X9548736Y-8344183D01*
X9548736Y-8344183D02*
X9539213Y-8382278D01*
X9539213Y-8382278D02*
X9529689Y-8401326D01*
X9529689Y-8401326D02*
X9520165Y-8410849D01*
X9520165Y-8410849D02*
X9501117Y-8420373D01*
X9501117Y-8420373D02*
X9482070Y-8420373D01*
X9482070Y-8420373D02*
X9463022Y-8410849D01*
X9463022Y-8410849D02*
X9453498Y-8401326D01*
X9453498Y-8401326D02*
X9443975Y-8382278D01*
X9443975Y-8382278D02*
X9434451Y-8344183D01*
X9434451Y-8344183D02*
X9434451Y-8296564D01*
X9434451Y-8296564D02*
X9443975Y-8258468D01*
X9443975Y-8258468D02*
X9453498Y-8239421D01*
X9453498Y-8239421D02*
X9463022Y-8229897D01*
X9463022Y-8229897D02*
X9482070Y-8220373D01*
X9634451Y-8420373D02*
X9634451Y-8287040D01*
X9634451Y-8306087D02*
X9643975Y-8296564D01*
X9643975Y-8296564D02*
X9663022Y-8287040D01*
X9663022Y-8287040D02*
X9691594Y-8287040D01*
X9691594Y-8287040D02*
X9710641Y-8296564D01*
X9710641Y-8296564D02*
X9720165Y-8315611D01*
X9720165Y-8315611D02*
X9720165Y-8420373D01*
X9720165Y-8315611D02*
X9729689Y-8296564D01*
X9729689Y-8296564D02*
X9748736Y-8287040D01*
X9748736Y-8287040D02*
X9777308Y-8287040D01*
X9777308Y-8287040D02*
X9796356Y-8296564D01*
X9796356Y-8296564D02*
X9805879Y-8315611D01*
X9805879Y-8315611D02*
X9805879Y-8420373D01*
X9901117Y-8420373D02*
X9901117Y-8287040D01*
X9901117Y-8306087D02*
X9910641Y-8296564D01*
X9910641Y-8296564D02*
X9929689Y-8287040D01*
X9929689Y-8287040D02*
X9958260Y-8287040D01*
X9958260Y-8287040D02*
X9977308Y-8296564D01*
X9977308Y-8296564D02*
X9986832Y-8315611D01*
X9986832Y-8315611D02*
X9986832Y-8420373D01*
X9986832Y-8315611D02*
X9996356Y-8296564D01*
X9996356Y-8296564D02*
X10015403Y-8287040D01*
X10015403Y-8287040D02*
X10043975Y-8287040D01*
X10043975Y-8287040D02*
X10063022Y-8296564D01*
X10063022Y-8296564D02*
X10072546Y-8315611D01*
X10072546Y-8315611D02*
X10072546Y-8420373D01*
X10463022Y-8210849D02*
X10291594Y-8467992D01*
X10720165Y-8220373D02*
X10739213Y-8220373D01*
X10739213Y-8220373D02*
X10758260Y-8229897D01*
X10758260Y-8229897D02*
X10767784Y-8239421D01*
X10767784Y-8239421D02*
X10777308Y-8258468D01*
X10777308Y-8258468D02*
X10786832Y-8296564D01*
X10786832Y-8296564D02*
X10786832Y-8344183D01*
X10786832Y-8344183D02*
X10777308Y-8382278D01*
X10777308Y-8382278D02*
X10767784Y-8401326D01*
X10767784Y-8401326D02*
X10758260Y-8410849D01*
X10758260Y-8410849D02*
X10739213Y-8420373D01*
X10739213Y-8420373D02*
X10720165Y-8420373D01*
X10720165Y-8420373D02*
X10701118Y-8410849D01*
X10701118Y-8410849D02*
X10691594Y-8401326D01*
X10691594Y-8401326D02*
X10682070Y-8382278D01*
X10682070Y-8382278D02*
X10672546Y-8344183D01*
X10672546Y-8344183D02*
X10672546Y-8296564D01*
X10672546Y-8296564D02*
X10682070Y-8258468D01*
X10682070Y-8258468D02*
X10691594Y-8239421D01*
X10691594Y-8239421D02*
X10701118Y-8229897D01*
X10701118Y-8229897D02*
X10720165Y-8220373D01*
X10872546Y-8401326D02*
X10882070Y-8410849D01*
X10882070Y-8410849D02*
X10872546Y-8420373D01*
X10872546Y-8420373D02*
X10863022Y-8410849D01*
X10863022Y-8410849D02*
X10872546Y-8401326D01*
X10872546Y-8401326D02*
X10872546Y-8420373D01*
X11005879Y-8220373D02*
X11024927Y-8220373D01*
X11024927Y-8220373D02*
X11043975Y-8229897D01*
X11043975Y-8229897D02*
X11053499Y-8239421D01*
X11053499Y-8239421D02*
X11063022Y-8258468D01*
X11063022Y-8258468D02*
X11072546Y-8296564D01*
X11072546Y-8296564D02*
X11072546Y-8344183D01*
X11072546Y-8344183D02*
X11063022Y-8382278D01*
X11063022Y-8382278D02*
X11053499Y-8401326D01*
X11053499Y-8401326D02*
X11043975Y-8410849D01*
X11043975Y-8410849D02*
X11024927Y-8420373D01*
X11024927Y-8420373D02*
X11005879Y-8420373D01*
X11005879Y-8420373D02*
X10986832Y-8410849D01*
X10986832Y-8410849D02*
X10977308Y-8401326D01*
X10977308Y-8401326D02*
X10967784Y-8382278D01*
X10967784Y-8382278D02*
X10958260Y-8344183D01*
X10958260Y-8344183D02*
X10958260Y-8296564D01*
X10958260Y-8296564D02*
X10967784Y-8258468D01*
X10967784Y-8258468D02*
X10977308Y-8239421D01*
X10977308Y-8239421D02*
X10986832Y-8229897D01*
X10986832Y-8229897D02*
X11005879Y-8220373D01*
X11139213Y-8220373D02*
X11263022Y-8220373D01*
X11263022Y-8220373D02*
X11196356Y-8296564D01*
X11196356Y-8296564D02*
X11224927Y-8296564D01*
X11224927Y-8296564D02*
X11243975Y-8306087D01*
X11243975Y-8306087D02*
X11253498Y-8315611D01*
X11253498Y-8315611D02*
X11263022Y-8334659D01*
X11263022Y-8334659D02*
X11263022Y-8382278D01*
X11263022Y-8382278D02*
X11253498Y-8401326D01*
X11253498Y-8401326D02*
X11243975Y-8410849D01*
X11243975Y-8410849D02*
X11224927Y-8420373D01*
X11224927Y-8420373D02*
X11167784Y-8420373D01*
X11167784Y-8420373D02*
X11148737Y-8410849D01*
X11148737Y-8410849D02*
X11139213Y-8401326D01*
X11453498Y-8420373D02*
X11339213Y-8420373D01*
X11396356Y-8420373D02*
X11396356Y-8220373D01*
X11396356Y-8220373D02*
X11377308Y-8248945D01*
X11377308Y-8248945D02*
X11358260Y-8267992D01*
X11358260Y-8267992D02*
X11339213Y-8277516D01*
X11634451Y-8220373D02*
X11539213Y-8220373D01*
X11539213Y-8220373D02*
X11529689Y-8315611D01*
X11529689Y-8315611D02*
X11539213Y-8306087D01*
X11539213Y-8306087D02*
X11558260Y-8296564D01*
X11558260Y-8296564D02*
X11605879Y-8296564D01*
X11605879Y-8296564D02*
X11624927Y-8306087D01*
X11624927Y-8306087D02*
X11634451Y-8315611D01*
X11634451Y-8315611D02*
X11643975Y-8334659D01*
X11643975Y-8334659D02*
X11643975Y-8382278D01*
X11643975Y-8382278D02*
X11634451Y-8401326D01*
X11634451Y-8401326D02*
X11624927Y-8410849D01*
X11624927Y-8410849D02*
X11605879Y-8420373D01*
X11605879Y-8420373D02*
X11558260Y-8420373D01*
X11558260Y-8420373D02*
X11539213Y-8410849D01*
X11539213Y-8410849D02*
X11529689Y-8401326D01*
X11720165Y-8220373D02*
X11720165Y-8258468D01*
X11796356Y-8220373D02*
X11796356Y-8258468D01*
X12091594Y-8496564D02*
X12082070Y-8487040D01*
X12082070Y-8487040D02*
X12063022Y-8458468D01*
X12063022Y-8458468D02*
X12053499Y-8439421D01*
X12053499Y-8439421D02*
X12043975Y-8410849D01*
X12043975Y-8410849D02*
X12034451Y-8363230D01*
X12034451Y-8363230D02*
X12034451Y-8325135D01*
X12034451Y-8325135D02*
X12043975Y-8277516D01*
X12043975Y-8277516D02*
X12053499Y-8248945D01*
X12053499Y-8248945D02*
X12063022Y-8229897D01*
X12063022Y-8229897D02*
X12082070Y-8201325D01*
X12082070Y-8201325D02*
X12091594Y-8191802D01*
X12196356Y-8306087D02*
X12177308Y-8296564D01*
X12177308Y-8296564D02*
X12167784Y-8287040D01*
X12167784Y-8287040D02*
X12158260Y-8267992D01*
X12158260Y-8267992D02*
X12158260Y-8258468D01*
X12158260Y-8258468D02*
X12167784Y-8239421D01*
X12167784Y-8239421D02*
X12177308Y-8229897D01*
X12177308Y-8229897D02*
X12196356Y-8220373D01*
X12196356Y-8220373D02*
X12234451Y-8220373D01*
X12234451Y-8220373D02*
X12253499Y-8229897D01*
X12253499Y-8229897D02*
X12263022Y-8239421D01*
X12263022Y-8239421D02*
X12272546Y-8258468D01*
X12272546Y-8258468D02*
X12272546Y-8267992D01*
X12272546Y-8267992D02*
X12263022Y-8287040D01*
X12263022Y-8287040D02*
X12253499Y-8296564D01*
X12253499Y-8296564D02*
X12234451Y-8306087D01*
X12234451Y-8306087D02*
X12196356Y-8306087D01*
X12196356Y-8306087D02*
X12177308Y-8315611D01*
X12177308Y-8315611D02*
X12167784Y-8325135D01*
X12167784Y-8325135D02*
X12158260Y-8344183D01*
X12158260Y-8344183D02*
X12158260Y-8382278D01*
X12158260Y-8382278D02*
X12167784Y-8401326D01*
X12167784Y-8401326D02*
X12177308Y-8410849D01*
X12177308Y-8410849D02*
X12196356Y-8420373D01*
X12196356Y-8420373D02*
X12234451Y-8420373D01*
X12234451Y-8420373D02*
X12253499Y-8410849D01*
X12253499Y-8410849D02*
X12263022Y-8401326D01*
X12263022Y-8401326D02*
X12272546Y-8382278D01*
X12272546Y-8382278D02*
X12272546Y-8344183D01*
X12272546Y-8344183D02*
X12263022Y-8325135D01*
X12263022Y-8325135D02*
X12253499Y-8315611D01*
X12253499Y-8315611D02*
X12234451Y-8306087D01*
X12510641Y-8420373D02*
X12510641Y-8220373D01*
X12596356Y-8420373D02*
X12596356Y-8315611D01*
X12596356Y-8315611D02*
X12586832Y-8296564D01*
X12586832Y-8296564D02*
X12567784Y-8287040D01*
X12567784Y-8287040D02*
X12539213Y-8287040D01*
X12539213Y-8287040D02*
X12520165Y-8296564D01*
X12520165Y-8296564D02*
X12510641Y-8306087D01*
X12720165Y-8420373D02*
X12701118Y-8410849D01*
X12701118Y-8410849D02*
X12691594Y-8401326D01*
X12691594Y-8401326D02*
X12682070Y-8382278D01*
X12682070Y-8382278D02*
X12682070Y-8325135D01*
X12682070Y-8325135D02*
X12691594Y-8306087D01*
X12691594Y-8306087D02*
X12701118Y-8296564D01*
X12701118Y-8296564D02*
X12720165Y-8287040D01*
X12720165Y-8287040D02*
X12748737Y-8287040D01*
X12748737Y-8287040D02*
X12767784Y-8296564D01*
X12767784Y-8296564D02*
X12777308Y-8306087D01*
X12777308Y-8306087D02*
X12786832Y-8325135D01*
X12786832Y-8325135D02*
X12786832Y-8382278D01*
X12786832Y-8382278D02*
X12777308Y-8401326D01*
X12777308Y-8401326D02*
X12767784Y-8410849D01*
X12767784Y-8410849D02*
X12748737Y-8420373D01*
X12748737Y-8420373D02*
X12720165Y-8420373D01*
X12901118Y-8420373D02*
X12882070Y-8410849D01*
X12882070Y-8410849D02*
X12872546Y-8391802D01*
X12872546Y-8391802D02*
X12872546Y-8220373D01*
X13053499Y-8410849D02*
X13034451Y-8420373D01*
X13034451Y-8420373D02*
X12996356Y-8420373D01*
X12996356Y-8420373D02*
X12977308Y-8410849D01*
X12977308Y-8410849D02*
X12967784Y-8391802D01*
X12967784Y-8391802D02*
X12967784Y-8315611D01*
X12967784Y-8315611D02*
X12977308Y-8296564D01*
X12977308Y-8296564D02*
X12996356Y-8287040D01*
X12996356Y-8287040D02*
X13034451Y-8287040D01*
X13034451Y-8287040D02*
X13053499Y-8296564D01*
X13053499Y-8296564D02*
X13063022Y-8315611D01*
X13063022Y-8315611D02*
X13063022Y-8334659D01*
X13063022Y-8334659D02*
X12967784Y-8353706D01*
X13139213Y-8410849D02*
X13158261Y-8420373D01*
X13158261Y-8420373D02*
X13196356Y-8420373D01*
X13196356Y-8420373D02*
X13215403Y-8410849D01*
X13215403Y-8410849D02*
X13224927Y-8391802D01*
X13224927Y-8391802D02*
X13224927Y-8382278D01*
X13224927Y-8382278D02*
X13215403Y-8363230D01*
X13215403Y-8363230D02*
X13196356Y-8353706D01*
X13196356Y-8353706D02*
X13167784Y-8353706D01*
X13167784Y-8353706D02*
X13148737Y-8344183D01*
X13148737Y-8344183D02*
X13139213Y-8325135D01*
X13139213Y-8325135D02*
X13139213Y-8315611D01*
X13139213Y-8315611D02*
X13148737Y-8296564D01*
X13148737Y-8296564D02*
X13167784Y-8287040D01*
X13167784Y-8287040D02*
X13196356Y-8287040D01*
X13196356Y-8287040D02*
X13215403Y-8296564D01*
X13291594Y-8496564D02*
X13301118Y-8487040D01*
X13301118Y-8487040D02*
X13320165Y-8458468D01*
X13320165Y-8458468D02*
X13329689Y-8439421D01*
X13329689Y-8439421D02*
X13339213Y-8410849D01*
X13339213Y-8410849D02*
X13348737Y-8363230D01*
X13348737Y-8363230D02*
X13348737Y-8325135D01*
X13348737Y-8325135D02*
X13339213Y-8277516D01*
X13339213Y-8277516D02*
X13329689Y-8248945D01*
X13329689Y-8248945D02*
X13320165Y-8229897D01*
X13320165Y-8229897D02*
X13301118Y-8201325D01*
X13301118Y-8201325D02*
X13291594Y-8191802D01*
D12*
X8466531Y-8542889D02*
X8466531Y-8642889D01*
X8416531Y-8592889D02*
X8516531Y-8592889D01*
D11*
X8882070Y-8684373D02*
X8767784Y-8684373D01*
X8824927Y-8684373D02*
X8824927Y-8484373D01*
X8824927Y-8484373D02*
X8805879Y-8512945D01*
X8805879Y-8512945D02*
X8786832Y-8531992D01*
X8786832Y-8531992D02*
X8767784Y-8541516D01*
X8967784Y-8665326D02*
X8977308Y-8674849D01*
X8977308Y-8674849D02*
X8967784Y-8684373D01*
X8967784Y-8684373D02*
X8958260Y-8674849D01*
X8958260Y-8674849D02*
X8967784Y-8665326D01*
X8967784Y-8665326D02*
X8967784Y-8684373D01*
X9101117Y-8484373D02*
X9120165Y-8484373D01*
X9120165Y-8484373D02*
X9139213Y-8493897D01*
X9139213Y-8493897D02*
X9148736Y-8503421D01*
X9148736Y-8503421D02*
X9158260Y-8522468D01*
X9158260Y-8522468D02*
X9167784Y-8560564D01*
X9167784Y-8560564D02*
X9167784Y-8608183D01*
X9167784Y-8608183D02*
X9158260Y-8646278D01*
X9158260Y-8646278D02*
X9148736Y-8665326D01*
X9148736Y-8665326D02*
X9139213Y-8674849D01*
X9139213Y-8674849D02*
X9120165Y-8684373D01*
X9120165Y-8684373D02*
X9101117Y-8684373D01*
X9101117Y-8684373D02*
X9082070Y-8674849D01*
X9082070Y-8674849D02*
X9072546Y-8665326D01*
X9072546Y-8665326D02*
X9063022Y-8646278D01*
X9063022Y-8646278D02*
X9053498Y-8608183D01*
X9053498Y-8608183D02*
X9053498Y-8560564D01*
X9053498Y-8560564D02*
X9063022Y-8522468D01*
X9063022Y-8522468D02*
X9072546Y-8503421D01*
X9072546Y-8503421D02*
X9082070Y-8493897D01*
X9082070Y-8493897D02*
X9101117Y-8484373D01*
X9291594Y-8484373D02*
X9310641Y-8484373D01*
X9310641Y-8484373D02*
X9329689Y-8493897D01*
X9329689Y-8493897D02*
X9339213Y-8503421D01*
X9339213Y-8503421D02*
X9348736Y-8522468D01*
X9348736Y-8522468D02*
X9358260Y-8560564D01*
X9358260Y-8560564D02*
X9358260Y-8608183D01*
X9358260Y-8608183D02*
X9348736Y-8646278D01*
X9348736Y-8646278D02*
X9339213Y-8665326D01*
X9339213Y-8665326D02*
X9329689Y-8674849D01*
X9329689Y-8674849D02*
X9310641Y-8684373D01*
X9310641Y-8684373D02*
X9291594Y-8684373D01*
X9291594Y-8684373D02*
X9272546Y-8674849D01*
X9272546Y-8674849D02*
X9263022Y-8665326D01*
X9263022Y-8665326D02*
X9253498Y-8646278D01*
X9253498Y-8646278D02*
X9243975Y-8608183D01*
X9243975Y-8608183D02*
X9243975Y-8560564D01*
X9243975Y-8560564D02*
X9253498Y-8522468D01*
X9253498Y-8522468D02*
X9263022Y-8503421D01*
X9263022Y-8503421D02*
X9272546Y-8493897D01*
X9272546Y-8493897D02*
X9291594Y-8484373D01*
X9482070Y-8484373D02*
X9501117Y-8484373D01*
X9501117Y-8484373D02*
X9520165Y-8493897D01*
X9520165Y-8493897D02*
X9529689Y-8503421D01*
X9529689Y-8503421D02*
X9539213Y-8522468D01*
X9539213Y-8522468D02*
X9548736Y-8560564D01*
X9548736Y-8560564D02*
X9548736Y-8608183D01*
X9548736Y-8608183D02*
X9539213Y-8646278D01*
X9539213Y-8646278D02*
X9529689Y-8665326D01*
X9529689Y-8665326D02*
X9520165Y-8674849D01*
X9520165Y-8674849D02*
X9501117Y-8684373D01*
X9501117Y-8684373D02*
X9482070Y-8684373D01*
X9482070Y-8684373D02*
X9463022Y-8674849D01*
X9463022Y-8674849D02*
X9453498Y-8665326D01*
X9453498Y-8665326D02*
X9443975Y-8646278D01*
X9443975Y-8646278D02*
X9434451Y-8608183D01*
X9434451Y-8608183D02*
X9434451Y-8560564D01*
X9434451Y-8560564D02*
X9443975Y-8522468D01*
X9443975Y-8522468D02*
X9453498Y-8503421D01*
X9453498Y-8503421D02*
X9463022Y-8493897D01*
X9463022Y-8493897D02*
X9482070Y-8484373D01*
X9634451Y-8684373D02*
X9634451Y-8551040D01*
X9634451Y-8570087D02*
X9643975Y-8560564D01*
X9643975Y-8560564D02*
X9663022Y-8551040D01*
X9663022Y-8551040D02*
X9691594Y-8551040D01*
X9691594Y-8551040D02*
X9710641Y-8560564D01*
X9710641Y-8560564D02*
X9720165Y-8579611D01*
X9720165Y-8579611D02*
X9720165Y-8684373D01*
X9720165Y-8579611D02*
X9729689Y-8560564D01*
X9729689Y-8560564D02*
X9748736Y-8551040D01*
X9748736Y-8551040D02*
X9777308Y-8551040D01*
X9777308Y-8551040D02*
X9796356Y-8560564D01*
X9796356Y-8560564D02*
X9805879Y-8579611D01*
X9805879Y-8579611D02*
X9805879Y-8684373D01*
X9901117Y-8684373D02*
X9901117Y-8551040D01*
X9901117Y-8570087D02*
X9910641Y-8560564D01*
X9910641Y-8560564D02*
X9929689Y-8551040D01*
X9929689Y-8551040D02*
X9958260Y-8551040D01*
X9958260Y-8551040D02*
X9977308Y-8560564D01*
X9977308Y-8560564D02*
X9986832Y-8579611D01*
X9986832Y-8579611D02*
X9986832Y-8684373D01*
X9986832Y-8579611D02*
X9996356Y-8560564D01*
X9996356Y-8560564D02*
X10015403Y-8551040D01*
X10015403Y-8551040D02*
X10043975Y-8551040D01*
X10043975Y-8551040D02*
X10063022Y-8560564D01*
X10063022Y-8560564D02*
X10072546Y-8579611D01*
X10072546Y-8579611D02*
X10072546Y-8684373D01*
X10463022Y-8474849D02*
X10291594Y-8731992D01*
X10720165Y-8484373D02*
X10739213Y-8484373D01*
X10739213Y-8484373D02*
X10758260Y-8493897D01*
X10758260Y-8493897D02*
X10767784Y-8503421D01*
X10767784Y-8503421D02*
X10777308Y-8522468D01*
X10777308Y-8522468D02*
X10786832Y-8560564D01*
X10786832Y-8560564D02*
X10786832Y-8608183D01*
X10786832Y-8608183D02*
X10777308Y-8646278D01*
X10777308Y-8646278D02*
X10767784Y-8665326D01*
X10767784Y-8665326D02*
X10758260Y-8674849D01*
X10758260Y-8674849D02*
X10739213Y-8684373D01*
X10739213Y-8684373D02*
X10720165Y-8684373D01*
X10720165Y-8684373D02*
X10701118Y-8674849D01*
X10701118Y-8674849D02*
X10691594Y-8665326D01*
X10691594Y-8665326D02*
X10682070Y-8646278D01*
X10682070Y-8646278D02*
X10672546Y-8608183D01*
X10672546Y-8608183D02*
X10672546Y-8560564D01*
X10672546Y-8560564D02*
X10682070Y-8522468D01*
X10682070Y-8522468D02*
X10691594Y-8503421D01*
X10691594Y-8503421D02*
X10701118Y-8493897D01*
X10701118Y-8493897D02*
X10720165Y-8484373D01*
X10872546Y-8665326D02*
X10882070Y-8674849D01*
X10882070Y-8674849D02*
X10872546Y-8684373D01*
X10872546Y-8684373D02*
X10863022Y-8674849D01*
X10863022Y-8674849D02*
X10872546Y-8665326D01*
X10872546Y-8665326D02*
X10872546Y-8684373D01*
X11005879Y-8484373D02*
X11024927Y-8484373D01*
X11024927Y-8484373D02*
X11043975Y-8493897D01*
X11043975Y-8493897D02*
X11053499Y-8503421D01*
X11053499Y-8503421D02*
X11063022Y-8522468D01*
X11063022Y-8522468D02*
X11072546Y-8560564D01*
X11072546Y-8560564D02*
X11072546Y-8608183D01*
X11072546Y-8608183D02*
X11063022Y-8646278D01*
X11063022Y-8646278D02*
X11053499Y-8665326D01*
X11053499Y-8665326D02*
X11043975Y-8674849D01*
X11043975Y-8674849D02*
X11024927Y-8684373D01*
X11024927Y-8684373D02*
X11005879Y-8684373D01*
X11005879Y-8684373D02*
X10986832Y-8674849D01*
X10986832Y-8674849D02*
X10977308Y-8665326D01*
X10977308Y-8665326D02*
X10967784Y-8646278D01*
X10967784Y-8646278D02*
X10958260Y-8608183D01*
X10958260Y-8608183D02*
X10958260Y-8560564D01*
X10958260Y-8560564D02*
X10967784Y-8522468D01*
X10967784Y-8522468D02*
X10977308Y-8503421D01*
X10977308Y-8503421D02*
X10986832Y-8493897D01*
X10986832Y-8493897D02*
X11005879Y-8484373D01*
X11139213Y-8484373D02*
X11263022Y-8484373D01*
X11263022Y-8484373D02*
X11196356Y-8560564D01*
X11196356Y-8560564D02*
X11224927Y-8560564D01*
X11224927Y-8560564D02*
X11243975Y-8570087D01*
X11243975Y-8570087D02*
X11253498Y-8579611D01*
X11253498Y-8579611D02*
X11263022Y-8598659D01*
X11263022Y-8598659D02*
X11263022Y-8646278D01*
X11263022Y-8646278D02*
X11253498Y-8665326D01*
X11253498Y-8665326D02*
X11243975Y-8674849D01*
X11243975Y-8674849D02*
X11224927Y-8684373D01*
X11224927Y-8684373D02*
X11167784Y-8684373D01*
X11167784Y-8684373D02*
X11148737Y-8674849D01*
X11148737Y-8674849D02*
X11139213Y-8665326D01*
X11358260Y-8684373D02*
X11396356Y-8684373D01*
X11396356Y-8684373D02*
X11415403Y-8674849D01*
X11415403Y-8674849D02*
X11424927Y-8665326D01*
X11424927Y-8665326D02*
X11443975Y-8636754D01*
X11443975Y-8636754D02*
X11453498Y-8598659D01*
X11453498Y-8598659D02*
X11453498Y-8522468D01*
X11453498Y-8522468D02*
X11443975Y-8503421D01*
X11443975Y-8503421D02*
X11434451Y-8493897D01*
X11434451Y-8493897D02*
X11415403Y-8484373D01*
X11415403Y-8484373D02*
X11377308Y-8484373D01*
X11377308Y-8484373D02*
X11358260Y-8493897D01*
X11358260Y-8493897D02*
X11348737Y-8503421D01*
X11348737Y-8503421D02*
X11339213Y-8522468D01*
X11339213Y-8522468D02*
X11339213Y-8570087D01*
X11339213Y-8570087D02*
X11348737Y-8589135D01*
X11348737Y-8589135D02*
X11358260Y-8598659D01*
X11358260Y-8598659D02*
X11377308Y-8608183D01*
X11377308Y-8608183D02*
X11415403Y-8608183D01*
X11415403Y-8608183D02*
X11434451Y-8598659D01*
X11434451Y-8598659D02*
X11443975Y-8589135D01*
X11443975Y-8589135D02*
X11453498Y-8570087D01*
X11624927Y-8551040D02*
X11624927Y-8684373D01*
X11577308Y-8474849D02*
X11529689Y-8617707D01*
X11529689Y-8617707D02*
X11653498Y-8617707D01*
X11720165Y-8484373D02*
X11720165Y-8522468D01*
X11796356Y-8484373D02*
X11796356Y-8522468D01*
X12091594Y-8760564D02*
X12082070Y-8751040D01*
X12082070Y-8751040D02*
X12063022Y-8722468D01*
X12063022Y-8722468D02*
X12053499Y-8703421D01*
X12053499Y-8703421D02*
X12043975Y-8674849D01*
X12043975Y-8674849D02*
X12034451Y-8627230D01*
X12034451Y-8627230D02*
X12034451Y-8589135D01*
X12034451Y-8589135D02*
X12043975Y-8541516D01*
X12043975Y-8541516D02*
X12053499Y-8512945D01*
X12053499Y-8512945D02*
X12063022Y-8493897D01*
X12063022Y-8493897D02*
X12082070Y-8465326D01*
X12082070Y-8465326D02*
X12091594Y-8455802D01*
X12253499Y-8551040D02*
X12253499Y-8684373D01*
X12205879Y-8474849D02*
X12158260Y-8617707D01*
X12158260Y-8617707D02*
X12282070Y-8617707D01*
X12510641Y-8684373D02*
X12510641Y-8484373D01*
X12596356Y-8684373D02*
X12596356Y-8579611D01*
X12596356Y-8579611D02*
X12586832Y-8560564D01*
X12586832Y-8560564D02*
X12567784Y-8551040D01*
X12567784Y-8551040D02*
X12539213Y-8551040D01*
X12539213Y-8551040D02*
X12520165Y-8560564D01*
X12520165Y-8560564D02*
X12510641Y-8570087D01*
X12720165Y-8684373D02*
X12701118Y-8674849D01*
X12701118Y-8674849D02*
X12691594Y-8665326D01*
X12691594Y-8665326D02*
X12682070Y-8646278D01*
X12682070Y-8646278D02*
X12682070Y-8589135D01*
X12682070Y-8589135D02*
X12691594Y-8570087D01*
X12691594Y-8570087D02*
X12701118Y-8560564D01*
X12701118Y-8560564D02*
X12720165Y-8551040D01*
X12720165Y-8551040D02*
X12748737Y-8551040D01*
X12748737Y-8551040D02*
X12767784Y-8560564D01*
X12767784Y-8560564D02*
X12777308Y-8570087D01*
X12777308Y-8570087D02*
X12786832Y-8589135D01*
X12786832Y-8589135D02*
X12786832Y-8646278D01*
X12786832Y-8646278D02*
X12777308Y-8665326D01*
X12777308Y-8665326D02*
X12767784Y-8674849D01*
X12767784Y-8674849D02*
X12748737Y-8684373D01*
X12748737Y-8684373D02*
X12720165Y-8684373D01*
X12901118Y-8684373D02*
X12882070Y-8674849D01*
X12882070Y-8674849D02*
X12872546Y-8655802D01*
X12872546Y-8655802D02*
X12872546Y-8484373D01*
X13053499Y-8674849D02*
X13034451Y-8684373D01*
X13034451Y-8684373D02*
X12996356Y-8684373D01*
X12996356Y-8684373D02*
X12977308Y-8674849D01*
X12977308Y-8674849D02*
X12967784Y-8655802D01*
X12967784Y-8655802D02*
X12967784Y-8579611D01*
X12967784Y-8579611D02*
X12977308Y-8560564D01*
X12977308Y-8560564D02*
X12996356Y-8551040D01*
X12996356Y-8551040D02*
X13034451Y-8551040D01*
X13034451Y-8551040D02*
X13053499Y-8560564D01*
X13053499Y-8560564D02*
X13063022Y-8579611D01*
X13063022Y-8579611D02*
X13063022Y-8598659D01*
X13063022Y-8598659D02*
X12967784Y-8617707D01*
X13139213Y-8674849D02*
X13158261Y-8684373D01*
X13158261Y-8684373D02*
X13196356Y-8684373D01*
X13196356Y-8684373D02*
X13215403Y-8674849D01*
X13215403Y-8674849D02*
X13224927Y-8655802D01*
X13224927Y-8655802D02*
X13224927Y-8646278D01*
X13224927Y-8646278D02*
X13215403Y-8627230D01*
X13215403Y-8627230D02*
X13196356Y-8617707D01*
X13196356Y-8617707D02*
X13167784Y-8617707D01*
X13167784Y-8617707D02*
X13148737Y-8608183D01*
X13148737Y-8608183D02*
X13139213Y-8589135D01*
X13139213Y-8589135D02*
X13139213Y-8579611D01*
X13139213Y-8579611D02*
X13148737Y-8560564D01*
X13148737Y-8560564D02*
X13167784Y-8551040D01*
X13167784Y-8551040D02*
X13196356Y-8551040D01*
X13196356Y-8551040D02*
X13215403Y-8560564D01*
X13291594Y-8760564D02*
X13301118Y-8751040D01*
X13301118Y-8751040D02*
X13320165Y-8722468D01*
X13320165Y-8722468D02*
X13329689Y-8703421D01*
X13329689Y-8703421D02*
X13339213Y-8674849D01*
X13339213Y-8674849D02*
X13348737Y-8627230D01*
X13348737Y-8627230D02*
X13348737Y-8589135D01*
X13348737Y-8589135D02*
X13339213Y-8541516D01*
X13339213Y-8541516D02*
X13329689Y-8512945D01*
X13329689Y-8512945D02*
X13320165Y-8493897D01*
X13320165Y-8493897D02*
X13301118Y-8465326D01*
X13301118Y-8465326D02*
X13291594Y-8455802D01*
M02*
