%TF.GenerationSoftware,KiCad,Pcbnew,7.0.10-7.0.10~ubuntu22.04.1*%
%TF.CreationDate,2024-08-03T23:28:12-07:00*%
%TF.ProjectId,cheating-calc,63686561-7469-46e6-972d-63616c632e6b,rev?*%
%TF.SameCoordinates,Original*%
%TF.FileFunction,Legend,Top*%
%TF.FilePolarity,Positive*%
%FSLAX46Y46*%
G04 Gerber Fmt 4.6, Leading zero omitted, Abs format (unit mm)*
G04 Created by KiCad (PCBNEW 7.0.10-7.0.10~ubuntu22.04.1) date 2024-08-03 23:28:12*
%MOMM*%
%LPD*%
G01*
G04 APERTURE LIST*
%ADD10C,0.150000*%
%ADD11C,0.200000*%
%ADD12C,0.127000*%
%ADD13C,0.120000*%
G04 APERTURE END LIST*
D10*
G36*
X101264146Y-68806362D02*
G01*
X101404097Y-68806362D01*
X101404097Y-68666411D01*
X101544048Y-68666411D01*
X101544048Y-68526460D01*
X101684000Y-68526460D01*
X101684000Y-68946558D01*
X101544048Y-68946558D01*
X101544048Y-69086509D01*
X101404097Y-69086509D01*
X101404097Y-69226460D01*
X101684000Y-69226460D01*
X101684000Y-69506607D01*
X100704097Y-69506607D01*
X100704097Y-68806362D01*
X100844048Y-68806362D01*
X100844048Y-69226460D01*
X101264146Y-69226460D01*
X101264146Y-68946558D01*
X101124195Y-68946558D01*
X101124195Y-68806362D01*
X100844048Y-68806362D01*
X100704097Y-68806362D01*
X100704097Y-68666411D01*
X100844048Y-68666411D01*
X100844048Y-68526460D01*
X101264146Y-68526460D01*
X101264146Y-68806362D01*
G37*
G36*
X100704097Y-67437870D02*
G01*
X100704097Y-68277821D01*
X100844048Y-68277821D01*
X100844048Y-67997919D01*
X101544048Y-67997919D01*
X101544048Y-68277821D01*
X101684000Y-68277821D01*
X101684000Y-67437870D01*
X101544048Y-67437870D01*
X101544048Y-67717772D01*
X100844048Y-67717772D01*
X100844048Y-67437870D01*
X100704097Y-67437870D01*
G37*
G36*
X100704097Y-66209084D02*
G01*
X100704097Y-66488986D01*
X101124195Y-66488986D01*
X101124195Y-66629182D01*
X100984000Y-66629182D01*
X100984000Y-66769133D01*
X100844048Y-66769133D01*
X100844048Y-66909084D01*
X100704097Y-66909084D01*
X100704097Y-67189230D01*
X101684000Y-67189230D01*
X101684000Y-66909084D01*
X101264146Y-66909084D01*
X101264146Y-66769133D01*
X101404097Y-66769133D01*
X101404097Y-66629182D01*
X101544048Y-66629182D01*
X101544048Y-66488986D01*
X101684000Y-66488986D01*
X101684000Y-66209084D01*
X100704097Y-66209084D01*
G37*
G36*
X101124195Y-65050396D02*
G01*
X101124195Y-65470494D01*
X101264146Y-65470494D01*
X101264146Y-65330298D01*
X101544048Y-65330298D01*
X101544048Y-65610445D01*
X101404097Y-65610445D01*
X101404097Y-65750396D01*
X100984000Y-65750396D01*
X100984000Y-65610445D01*
X100844048Y-65610445D01*
X100844048Y-65050396D01*
X100704097Y-65050396D01*
X100704097Y-65750396D01*
X100844048Y-65750396D01*
X100844048Y-65890347D01*
X100984000Y-65890347D01*
X100984000Y-66030542D01*
X101404097Y-66030542D01*
X101404097Y-65890347D01*
X101541362Y-65890347D01*
X101541362Y-65750396D01*
X101684000Y-65750396D01*
X101684000Y-65050396D01*
X101124195Y-65050396D01*
G37*
G36*
X98164097Y-68596558D02*
G01*
X98164097Y-69436509D01*
X98304048Y-69436509D01*
X98304048Y-69156607D01*
X99144000Y-69156607D01*
X99144000Y-68876460D01*
X98304048Y-68876460D01*
X98304048Y-68596558D01*
X98164097Y-68596558D01*
G37*
G36*
X98164097Y-67437870D02*
G01*
X98164097Y-68277821D01*
X98304048Y-68277821D01*
X98304048Y-67997919D01*
X99004048Y-67997919D01*
X99004048Y-68277821D01*
X99144000Y-68277821D01*
X99144000Y-67437870D01*
X99004048Y-67437870D01*
X99004048Y-67717772D01*
X98304048Y-67717772D01*
X98304048Y-67437870D01*
X98164097Y-67437870D01*
G37*
G36*
X98724146Y-66349035D02*
G01*
X98864097Y-66349035D01*
X98864097Y-66909084D01*
X99144000Y-66909084D01*
X99144000Y-67189230D01*
X98164097Y-67189230D01*
X98164097Y-66488986D01*
X98304048Y-66488986D01*
X98304048Y-66909084D01*
X98724146Y-66909084D01*
X98724146Y-66488986D01*
X98304048Y-66488986D01*
X98164097Y-66488986D01*
X98164097Y-66349035D01*
X98304048Y-66349035D01*
X98304048Y-66209084D01*
X98724146Y-66209084D01*
X98724146Y-66349035D01*
G37*
G36*
X96044195Y-68526460D02*
G01*
X96044195Y-68946558D01*
X96184146Y-68946558D01*
X96184146Y-68806362D01*
X96464048Y-68806362D01*
X96464048Y-69086509D01*
X96324097Y-69086509D01*
X96324097Y-69226460D01*
X95904000Y-69226460D01*
X95904000Y-69086509D01*
X95764048Y-69086509D01*
X95764048Y-68526460D01*
X95624097Y-68526460D01*
X95624097Y-69226460D01*
X95764048Y-69226460D01*
X95764048Y-69366411D01*
X95904000Y-69366411D01*
X95904000Y-69506607D01*
X96324097Y-69506607D01*
X96324097Y-69366411D01*
X96461362Y-69366411D01*
X96461362Y-69226460D01*
X96604000Y-69226460D01*
X96604000Y-68526460D01*
X96044195Y-68526460D01*
G37*
G36*
X95624097Y-67367772D02*
G01*
X95624097Y-67647674D01*
X96044195Y-67647674D01*
X96044195Y-67787870D01*
X95904000Y-67787870D01*
X95904000Y-67927821D01*
X95764048Y-67927821D01*
X95764048Y-68067772D01*
X95624097Y-68067772D01*
X95624097Y-68347919D01*
X96604000Y-68347919D01*
X96604000Y-68067772D01*
X96184146Y-68067772D01*
X96184146Y-67927821D01*
X96324097Y-67927821D01*
X96324097Y-67787870D01*
X96464048Y-67787870D01*
X96464048Y-67647674D01*
X96604000Y-67647674D01*
X96604000Y-67367772D01*
X95624097Y-67367772D01*
G37*
G36*
X96324097Y-66349035D02*
G01*
X96464048Y-66349035D01*
X96464048Y-66488986D01*
X96604000Y-66488986D01*
X96604000Y-67189230D01*
X95624097Y-67189230D01*
X95624097Y-66909084D01*
X95764048Y-66909084D01*
X96464048Y-66909084D01*
X96464048Y-66629182D01*
X96324097Y-66629182D01*
X96324097Y-66488986D01*
X95904000Y-66488986D01*
X95904000Y-66629182D01*
X95764048Y-66629182D01*
X95764048Y-66909084D01*
X95624097Y-66909084D01*
X95624097Y-66488986D01*
X95764048Y-66488986D01*
X95764048Y-66349035D01*
X95904000Y-66349035D01*
X95904000Y-66209084D01*
X96324097Y-66209084D01*
X96324097Y-66349035D01*
G37*
G36*
X93250195Y-68526460D02*
G01*
X93250195Y-68666411D01*
X93110000Y-68666411D01*
X93110000Y-69226460D01*
X92970048Y-69226460D01*
X92970048Y-68666411D01*
X92830097Y-68666411D01*
X92830097Y-69506607D01*
X93250195Y-69506607D01*
X93250195Y-68806362D01*
X93670048Y-68806362D01*
X93670048Y-69226460D01*
X93530097Y-69226460D01*
X93530097Y-69506607D01*
X93670048Y-69506607D01*
X93670048Y-69366411D01*
X93810000Y-69366411D01*
X93810000Y-68666411D01*
X93670048Y-68666411D01*
X93670048Y-68526460D01*
X93250195Y-68526460D01*
G37*
G36*
X92830097Y-67367772D02*
G01*
X92830097Y-67647674D01*
X93250195Y-67647674D01*
X93250195Y-67787870D01*
X93390146Y-67787870D01*
X93390146Y-67927821D01*
X93250195Y-67927821D01*
X93250195Y-68067772D01*
X92830097Y-68067772D01*
X92830097Y-68347919D01*
X93390146Y-68347919D01*
X93390146Y-68207723D01*
X93530097Y-68207723D01*
X93530097Y-68067772D01*
X93670048Y-68067772D01*
X93670048Y-67927821D01*
X93810000Y-67927821D01*
X93810000Y-67787870D01*
X93670048Y-67787870D01*
X93670048Y-67647674D01*
X93530097Y-67647674D01*
X93530097Y-67507723D01*
X93390146Y-67507723D01*
X93390146Y-67367772D01*
X92830097Y-67367772D01*
G37*
D11*
G36*
X88212624Y-53393593D02*
G01*
X86758133Y-53393593D01*
X86758133Y-53658084D01*
X87233967Y-53658084D01*
X87233967Y-55086001D01*
X87736790Y-55086001D01*
X87736790Y-53658084D01*
X88212624Y-53658084D01*
X88212624Y-53393593D01*
G37*
G36*
X90182394Y-53393593D02*
G01*
X88727903Y-53393593D01*
X88727903Y-53658084D01*
X89203737Y-53658084D01*
X89203737Y-54821510D01*
X88727903Y-54821510D01*
X88727903Y-55086001D01*
X90182394Y-55086001D01*
X90182394Y-54821510D01*
X89706560Y-54821510D01*
X89706560Y-53658084D01*
X90182394Y-53658084D01*
X90182394Y-53393593D01*
G37*
G36*
X91795911Y-54107759D02*
G01*
X90579337Y-54107759D01*
X90579337Y-54372250D01*
X91795911Y-54372250D01*
X91795911Y-54107759D01*
G37*
G36*
X93884016Y-54345676D02*
G01*
X93646099Y-54345676D01*
X93646099Y-54107759D01*
X93408182Y-54107759D01*
X93408182Y-53896001D01*
X93646099Y-53896001D01*
X93646099Y-53658084D01*
X93884016Y-53658084D01*
X93884016Y-53393593D01*
X92429526Y-53393593D01*
X92429526Y-53658084D01*
X93143277Y-53658084D01*
X93143277Y-53869427D01*
X92905360Y-53869427D01*
X92905360Y-54107759D01*
X92664951Y-54107759D01*
X92664951Y-54372250D01*
X93381609Y-54372250D01*
X93381609Y-54821510D01*
X92691525Y-54821510D01*
X92691525Y-54583593D01*
X92191193Y-54583593D01*
X92191193Y-54848084D01*
X92429526Y-54848084D01*
X92429526Y-55086001D01*
X93643608Y-55086001D01*
X93643608Y-54848084D01*
X93884016Y-54848084D01*
X93884016Y-54345676D01*
G37*
G36*
X95853786Y-54821510D02*
G01*
X94901703Y-54821510D01*
X94901703Y-54610167D01*
X95377952Y-54610167D01*
X95377952Y-54372250D01*
X95615869Y-54372250D01*
X95615869Y-54134333D01*
X95853786Y-54134333D01*
X95853786Y-53631510D01*
X95615869Y-53631510D01*
X95615869Y-53393593D01*
X94399295Y-53393593D01*
X94399295Y-53631510D01*
X94160963Y-53631510D01*
X94160963Y-53896001D01*
X94663786Y-53896001D01*
X94663786Y-53658084D01*
X95351378Y-53658084D01*
X95351378Y-53869427D01*
X95113046Y-53869427D01*
X95113046Y-54107759D01*
X94637212Y-54107759D01*
X94637212Y-54345676D01*
X94399295Y-54345676D01*
X94399295Y-54583593D01*
X94160963Y-54583593D01*
X94160963Y-55086001D01*
X95853786Y-55086001D01*
X95853786Y-54821510D01*
G37*
G36*
X99793325Y-53393593D02*
G01*
X99290918Y-53393593D01*
X99290918Y-54107759D01*
X99052586Y-54107759D01*
X99052586Y-54345676D01*
X98841242Y-54345676D01*
X98841242Y-54107759D01*
X98603325Y-54107759D01*
X98603325Y-53393593D01*
X98100503Y-53393593D01*
X98100503Y-54372250D01*
X98338835Y-54372250D01*
X98338835Y-54610167D01*
X98576752Y-54610167D01*
X98576752Y-54848084D01*
X98814669Y-54848084D01*
X98814669Y-55086001D01*
X99079159Y-55086001D01*
X99079159Y-54848084D01*
X99317491Y-54848084D01*
X99317491Y-54610167D01*
X99555408Y-54610167D01*
X99555408Y-54372250D01*
X99793325Y-54372250D01*
X99793325Y-53393593D01*
G37*
G36*
X100811012Y-54821510D02*
G01*
X100811012Y-54583593D01*
X100573095Y-54583593D01*
X100573095Y-53631510D01*
X100308605Y-53631510D01*
X100308605Y-53869427D01*
X100070272Y-53869427D01*
X100070272Y-54610167D01*
X100308605Y-54610167D01*
X100308605Y-54848084D01*
X100546521Y-54848084D01*
X100546521Y-55086001D01*
X101287261Y-55086001D01*
X101287261Y-54821510D01*
X100811012Y-54821510D01*
G37*
G36*
X101763095Y-53869427D02*
G01*
X101525178Y-53869427D01*
X101525178Y-53631510D01*
X101287261Y-53631510D01*
X101287261Y-53393593D01*
X100546521Y-53393593D01*
X100546521Y-53658084D01*
X101022355Y-53658084D01*
X101022355Y-53896001D01*
X101260688Y-53896001D01*
X101260688Y-54848084D01*
X101525178Y-54848084D01*
X101525178Y-54610167D01*
X101763095Y-54610167D01*
X101763095Y-53869427D01*
G37*
G36*
X103137865Y-54583593D02*
G01*
X102635042Y-54583593D01*
X102635042Y-55086001D01*
X103137865Y-55086001D01*
X103137865Y-54583593D01*
G37*
G36*
X105583468Y-54821510D02*
G01*
X105107635Y-54821510D01*
X105107635Y-53393593D01*
X104604812Y-53393593D01*
X104604812Y-53631510D01*
X104364819Y-53631510D01*
X104364819Y-53896001D01*
X104604812Y-53896001D01*
X104604812Y-54821510D01*
X104128978Y-54821510D01*
X104128978Y-55086001D01*
X105583468Y-55086001D01*
X105583468Y-54821510D01*
G37*
G36*
X88331790Y-57439593D02*
G01*
X87829383Y-57439593D01*
X87829383Y-57677510D01*
X87379707Y-57677510D01*
X87379707Y-57439593D01*
X87141790Y-57439593D01*
X87141790Y-56752001D01*
X87379707Y-56752001D01*
X87379707Y-56514084D01*
X87829383Y-56514084D01*
X87829383Y-56752001D01*
X88331790Y-56752001D01*
X88331790Y-56487510D01*
X88093873Y-56487510D01*
X88093873Y-56249593D01*
X87115217Y-56249593D01*
X87115217Y-56487510D01*
X86877300Y-56487510D01*
X86877300Y-56725427D01*
X86638967Y-56725427D01*
X86638967Y-57466167D01*
X86877300Y-57466167D01*
X86877300Y-57704084D01*
X87115217Y-57704084D01*
X87115217Y-57942001D01*
X88093873Y-57942001D01*
X88093873Y-57704084D01*
X88331790Y-57704084D01*
X88331790Y-57439593D01*
G37*
G36*
X90301560Y-56249593D02*
G01*
X89799152Y-56249593D01*
X89799152Y-56963759D01*
X89111560Y-56963759D01*
X89111560Y-56249593D01*
X88608737Y-56249593D01*
X88608737Y-57942001D01*
X89111560Y-57942001D01*
X89111560Y-57228250D01*
X89799152Y-57228250D01*
X89799152Y-57942001D01*
X90301560Y-57942001D01*
X90301560Y-56249593D01*
G37*
G36*
X92033413Y-56487510D02*
G01*
X92271330Y-56487510D01*
X92271330Y-57228250D01*
X91795496Y-57228250D01*
X91795496Y-57439593D01*
X92033413Y-57439593D01*
X92033413Y-57677510D01*
X92271330Y-57677510D01*
X92271330Y-57942001D01*
X91530590Y-57942001D01*
X91530590Y-57704084D01*
X91292673Y-57704084D01*
X91292673Y-57466167D01*
X91081330Y-57466167D01*
X91081330Y-57942001D01*
X90578507Y-57942001D01*
X90578507Y-56514084D01*
X91081330Y-56514084D01*
X91081330Y-57201676D01*
X91530590Y-57201676D01*
X91530590Y-56963759D01*
X91768922Y-56963759D01*
X91768922Y-56514084D01*
X91081330Y-56514084D01*
X90578507Y-56514084D01*
X90578507Y-56249593D01*
X92033413Y-56249593D01*
X92033413Y-56487510D01*
G37*
G36*
X94003182Y-56487510D02*
G01*
X94241099Y-56487510D01*
X94241099Y-57704084D01*
X94003182Y-57704084D01*
X94003182Y-57942001D01*
X92786609Y-57942001D01*
X92786609Y-57704084D01*
X92548277Y-57704084D01*
X92548277Y-56514084D01*
X93051099Y-56514084D01*
X93051099Y-57677510D01*
X93738692Y-57677510D01*
X93738692Y-56514084D01*
X93051099Y-56514084D01*
X92548277Y-56514084D01*
X92548277Y-56487510D01*
X92786609Y-56487510D01*
X92786609Y-56249593D01*
X94003182Y-56249593D01*
X94003182Y-56487510D01*
G37*
G36*
X96210869Y-56249593D02*
G01*
X95708461Y-56249593D01*
X95708461Y-56487510D01*
X95470129Y-56487510D01*
X95470129Y-56725427D01*
X95258786Y-56725427D01*
X95258786Y-56487510D01*
X95020869Y-56487510D01*
X95020869Y-56249593D01*
X94518046Y-56249593D01*
X94518046Y-57942001D01*
X95020869Y-57942001D01*
X95020869Y-57228250D01*
X95232212Y-57228250D01*
X95232212Y-57466167D01*
X95496703Y-57466167D01*
X95496703Y-57228250D01*
X95708461Y-57228250D01*
X95708461Y-57942001D01*
X96210869Y-57942001D01*
X96210869Y-56249593D01*
G37*
G36*
X97704805Y-56487510D02*
G01*
X97942722Y-56487510D01*
X97942722Y-56725427D01*
X98180639Y-56725427D01*
X98180639Y-57942001D01*
X97678231Y-57942001D01*
X97678231Y-57466167D01*
X96990639Y-57466167D01*
X96990639Y-57942001D01*
X96487816Y-57942001D01*
X96487816Y-57201676D01*
X96990639Y-57201676D01*
X97678231Y-57201676D01*
X97678231Y-56752001D01*
X97439899Y-56752001D01*
X97439899Y-56514084D01*
X97228556Y-56514084D01*
X97228556Y-56752001D01*
X96990639Y-56752001D01*
X96990639Y-57201676D01*
X96487816Y-57201676D01*
X96487816Y-56725427D01*
X96726148Y-56725427D01*
X96726148Y-56487510D01*
X96964065Y-56487510D01*
X96964065Y-56249593D01*
X97704805Y-56249593D01*
X97704805Y-56487510D01*
G37*
G36*
X100150408Y-57677510D02*
G01*
X98960408Y-57677510D01*
X98960408Y-56249593D01*
X98457586Y-56249593D01*
X98457586Y-57942001D01*
X100150408Y-57942001D01*
X100150408Y-57677510D01*
G37*
G36*
X101882261Y-56487510D02*
G01*
X102120178Y-56487510D01*
X102120178Y-57704084D01*
X101882261Y-57704084D01*
X101882261Y-57942001D01*
X100665688Y-57942001D01*
X100665688Y-57704084D01*
X100427355Y-57704084D01*
X100427355Y-56514084D01*
X100930178Y-56514084D01*
X100930178Y-57677510D01*
X101617771Y-57677510D01*
X101617771Y-56514084D01*
X100930178Y-56514084D01*
X100427355Y-56514084D01*
X100427355Y-56487510D01*
X100665688Y-56487510D01*
X100665688Y-56249593D01*
X101882261Y-56249593D01*
X101882261Y-56487510D01*
G37*
G36*
X104089948Y-57439593D02*
G01*
X103587540Y-57439593D01*
X103587540Y-57677510D01*
X103137865Y-57677510D01*
X103137865Y-57439593D01*
X102899948Y-57439593D01*
X102899948Y-56752001D01*
X103137865Y-56752001D01*
X103137865Y-56514084D01*
X103587540Y-56514084D01*
X103587540Y-56752001D01*
X104089948Y-56752001D01*
X104089948Y-56487510D01*
X103852031Y-56487510D01*
X103852031Y-56249593D01*
X102873374Y-56249593D01*
X102873374Y-56487510D01*
X102635457Y-56487510D01*
X102635457Y-56725427D01*
X102397125Y-56725427D01*
X102397125Y-57466167D01*
X102635457Y-57466167D01*
X102635457Y-57704084D01*
X102873374Y-57704084D01*
X102873374Y-57942001D01*
X103852031Y-57942001D01*
X103852031Y-57704084D01*
X104089948Y-57704084D01*
X104089948Y-57439593D01*
G37*
G36*
X106059718Y-57677510D02*
G01*
X105821801Y-57677510D01*
X105821801Y-57439593D01*
X105583884Y-57439593D01*
X105583884Y-57201676D01*
X105345551Y-57201676D01*
X105345551Y-56990333D01*
X105583884Y-56990333D01*
X105583884Y-56752001D01*
X105821801Y-56752001D01*
X105821801Y-56514084D01*
X106059718Y-56514084D01*
X106059718Y-56249593D01*
X105557310Y-56249593D01*
X105557310Y-56487510D01*
X105318978Y-56487510D01*
X105318978Y-56725427D01*
X105081061Y-56725427D01*
X105081061Y-56963759D01*
X104869718Y-56963759D01*
X104869718Y-56249593D01*
X104366895Y-56249593D01*
X104366895Y-57942001D01*
X104869718Y-57942001D01*
X104869718Y-57466167D01*
X105081061Y-57466167D01*
X105081061Y-57704084D01*
X105318978Y-57704084D01*
X105318978Y-57942001D01*
X106059718Y-57942001D01*
X106059718Y-57677510D01*
G37*
G36*
X88331790Y-60533510D02*
G01*
X87379707Y-60533510D01*
X87379707Y-60322167D01*
X87855956Y-60322167D01*
X87855956Y-60084250D01*
X88093873Y-60084250D01*
X88093873Y-59846333D01*
X88331790Y-59846333D01*
X88331790Y-59343510D01*
X88093873Y-59343510D01*
X88093873Y-59105593D01*
X86877300Y-59105593D01*
X86877300Y-59343510D01*
X86638967Y-59343510D01*
X86638967Y-59608001D01*
X87141790Y-59608001D01*
X87141790Y-59370084D01*
X87829383Y-59370084D01*
X87829383Y-59581427D01*
X87591050Y-59581427D01*
X87591050Y-59819759D01*
X87115217Y-59819759D01*
X87115217Y-60057676D01*
X86877300Y-60057676D01*
X86877300Y-60295593D01*
X86638967Y-60295593D01*
X86638967Y-60798001D01*
X88331790Y-60798001D01*
X88331790Y-60533510D01*
G37*
G36*
X89349477Y-60533510D02*
G01*
X89349477Y-60295593D01*
X89111560Y-60295593D01*
X89111560Y-59343510D01*
X88847069Y-59343510D01*
X88847069Y-59581427D01*
X88608737Y-59581427D01*
X88608737Y-60322167D01*
X88847069Y-60322167D01*
X88847069Y-60560084D01*
X89084986Y-60560084D01*
X89084986Y-60798001D01*
X89825726Y-60798001D01*
X89825726Y-60533510D01*
X89349477Y-60533510D01*
G37*
G36*
X90301560Y-59581427D02*
G01*
X90063643Y-59581427D01*
X90063643Y-59343510D01*
X89825726Y-59343510D01*
X89825726Y-59105593D01*
X89084986Y-59105593D01*
X89084986Y-59370084D01*
X89560820Y-59370084D01*
X89560820Y-59608001D01*
X89799152Y-59608001D01*
X89799152Y-60560084D01*
X90063643Y-60560084D01*
X90063643Y-60322167D01*
X90301560Y-60322167D01*
X90301560Y-59581427D01*
G37*
G36*
X92271330Y-60533510D02*
G01*
X91319247Y-60533510D01*
X91319247Y-60322167D01*
X91795496Y-60322167D01*
X91795496Y-60084250D01*
X92033413Y-60084250D01*
X92033413Y-59846333D01*
X92271330Y-59846333D01*
X92271330Y-59343510D01*
X92033413Y-59343510D01*
X92033413Y-59105593D01*
X90816839Y-59105593D01*
X90816839Y-59343510D01*
X90578507Y-59343510D01*
X90578507Y-59608001D01*
X91081330Y-59608001D01*
X91081330Y-59370084D01*
X91768922Y-59370084D01*
X91768922Y-59581427D01*
X91530590Y-59581427D01*
X91530590Y-59819759D01*
X91054756Y-59819759D01*
X91054756Y-60057676D01*
X90816839Y-60057676D01*
X90816839Y-60295593D01*
X90578507Y-60295593D01*
X90578507Y-60798001D01*
X92271330Y-60798001D01*
X92271330Y-60533510D01*
G37*
G36*
X94003182Y-60057676D02*
G01*
X94241099Y-60057676D01*
X94241099Y-60322167D01*
X94003182Y-60322167D01*
X94003182Y-60798001D01*
X93500360Y-60798001D01*
X93500360Y-60322167D01*
X92548277Y-60322167D01*
X92548277Y-60057676D01*
X93051099Y-60057676D01*
X93500360Y-60057676D01*
X93500360Y-59608001D01*
X93289016Y-59608001D01*
X93289016Y-59846333D01*
X93051099Y-59846333D01*
X93051099Y-60057676D01*
X92548277Y-60057676D01*
X92548277Y-59819759D01*
X92784117Y-59819759D01*
X92784117Y-59581427D01*
X93024526Y-59581427D01*
X93024526Y-59343510D01*
X93262443Y-59343510D01*
X93262443Y-59105593D01*
X94003182Y-59105593D01*
X94003182Y-60057676D01*
G37*
D12*
%TO.C,U1*%
X134280000Y-53866000D02*
X134280000Y-71666000D01*
X134280000Y-71666000D02*
X155280000Y-71666000D01*
X155280000Y-71666000D02*
X155280000Y-54537541D01*
X155280000Y-54537541D02*
X154608500Y-53866000D01*
X154608500Y-53866000D02*
X134280000Y-53866000D01*
X156704000Y-58266000D02*
X156704000Y-67261000D01*
X156704000Y-67261000D02*
X149352000Y-67261000D01*
X149352000Y-67261000D02*
X149352000Y-58262000D01*
X149352000Y-58262000D02*
X156705000Y-58262000D01*
D13*
%TO.C,Q1*%
X121968500Y-64679000D02*
X122618500Y-64679000D01*
X121968500Y-64679000D02*
X121318500Y-64679000D01*
X121968500Y-61559000D02*
X122618500Y-61559000D01*
X121968500Y-61559000D02*
X121318500Y-61559000D01*
X123371000Y-64959000D02*
X122891000Y-64959000D01*
X123131000Y-64629000D01*
X123371000Y-64959000D01*
G36*
X123371000Y-64959000D02*
G01*
X122891000Y-64959000D01*
X123131000Y-64629000D01*
X123371000Y-64959000D01*
G37*
%TO.C,J1*%
X99822000Y-72958000D02*
X92142000Y-72958000D01*
X92142000Y-70298000D02*
X92142000Y-72958000D01*
X99822000Y-70298000D02*
X99822000Y-72958000D01*
X99822000Y-70298000D02*
X92142000Y-70298000D01*
X101092000Y-70298000D02*
X102422000Y-70298000D01*
X102422000Y-70298000D02*
X102422000Y-71628000D01*
%TO.C,R4*%
X112395000Y-64111000D02*
X112395000Y-63341000D01*
X111025000Y-63341000D02*
X113765000Y-63341000D01*
X113765000Y-63341000D02*
X113765000Y-56801000D01*
X111025000Y-56801000D02*
X111025000Y-63341000D01*
X113765000Y-56801000D02*
X111025000Y-56801000D01*
X112395000Y-56031000D02*
X112395000Y-56801000D01*
%TO.C,R2*%
X130876000Y-55904000D02*
X130876000Y-56674000D01*
X132246000Y-56674000D02*
X129506000Y-56674000D01*
X129506000Y-56674000D02*
X129506000Y-63214000D01*
X132246000Y-63214000D02*
X132246000Y-56674000D01*
X129506000Y-63214000D02*
X132246000Y-63214000D01*
X130876000Y-63984000D02*
X130876000Y-63214000D01*
%TO.C,R3*%
X115824000Y-56031000D02*
X115824000Y-56801000D01*
X117194000Y-56801000D02*
X114454000Y-56801000D01*
X114454000Y-56801000D02*
X114454000Y-63341000D01*
X117194000Y-63341000D02*
X117194000Y-56801000D01*
X114454000Y-63341000D02*
X117194000Y-63341000D01*
X115824000Y-64111000D02*
X115824000Y-63341000D01*
%TO.C,Q2*%
X123371000Y-60006000D02*
X122891000Y-60006000D01*
X123131000Y-59676000D01*
X123371000Y-60006000D01*
G36*
X123371000Y-60006000D02*
G01*
X122891000Y-60006000D01*
X123131000Y-59676000D01*
X123371000Y-60006000D01*
G37*
X121968500Y-56606000D02*
X121318500Y-56606000D01*
X121968500Y-56606000D02*
X122618500Y-56606000D01*
X121968500Y-59726000D02*
X121318500Y-59726000D01*
X121968500Y-59726000D02*
X122618500Y-59726000D01*
%TO.C,R1*%
X127508000Y-63984000D02*
X127508000Y-63214000D01*
X126138000Y-63214000D02*
X128878000Y-63214000D01*
X128878000Y-63214000D02*
X128878000Y-56674000D01*
X126138000Y-56674000D02*
X126138000Y-63214000D01*
X128878000Y-56674000D02*
X126138000Y-56674000D01*
X127508000Y-55904000D02*
X127508000Y-56674000D01*
%TD*%
M02*
